<svg xmlns="http://www.w3.org/2000/svg" xmlns:xlink="http://www.w3.org/1999/xlink" width="4262" height="41" xmlns:v="https://vecta.io/nano"><style><![CDATA[.B{stroke:#919191}.C{stroke-width:1.5}.D{fill:#333}.E{fill:#787878}.F{fill:#444}.G{fill-rule:evenodd}.H{fill:#bdbdbd}.I{fill:#919191}.J{fill:#ff000a}.K{fill:#d0cfcd}.L{fill:none}.M{fill:#666}.N{fill:#7bca01}.O{fill:#8a8a8a}.P{fill:#828282}.Q{fill:#0078d4}.R{fill:#ddd}.S{fill:#9cd740}.T{fill:#7e7e7e}.U{fill:#fff}.V{opacity:.4}.W{opacity:.8}.X{fill:#212121}.Y{stroke:#666}.Z{stroke-width:2}.a{fill:#bcbab7}.b{opacity:.6}.c{stroke-width:.5}.d{fill:#e0e0e0}.e{fill:#ccc}.f{fill:#d9d9d9}.g{stroke:#a6a6a6}.h{stroke-dasharray:3 1}.i{fill:#0d4fa4}.j{stroke:#444}.k{fill:#adadad}.l{stroke-width:.8}.m{stroke:#e0e0e0}.n{fill:#c4c4c4}.o{stroke-linejoin:round}.p{stroke-width:2.083}]]></style><g class="L"><circle cx="20.565" cy="19.435" r="1.739" class="F"/><circle cx="14.478" cy="20.304" r="2.609" class="a"/><circle cx="13.174" cy="13.783" r="2.174" class="O"/><circle cx="17.522" cy="25.957" r="2.174" class="F"/><circle cx="27.087" cy="16.391" r="2.174" class="a"/><circle cx="20.565" cy="12.478" r="3.478" class="O"/><circle cx="26.218" cy="25.087" r="3.913" class="F"/><path d="M8.063 32.174h23.863M8 32.78V8" class="B C"/></g><path fill="#777" d="M47.5 14.071h3.75v15H47.5z"/><path d="M52.5 22.821h6.25v6.25H52.5z" class="F"/><path fill="#777" d="M52.5 14.071h6.25v7.5H52.5z"/><path d="M60.133 19.377h5.686v5.022h-5.686zm0 6.022h5.686V32.5h-5.686zm6.68 2.382h5.686V32.5h-5.686z" class="F"/><path d="M66.813 15.172h5.686v11.439h-5.686zM47.499 7.5h11.639v4.833H47.499zm12.634 0h5.686v10.479h-5.686zm6.682 0h5.686v6.503h-5.686z" fill="#777"/><path d="M47.5 30.164h11.639V32.5H47.5z" class="F"/><g transform="translate(80)" class="L"><path d="M0 0h40v40H0z" class="U"/><g clip-path="url(#A)"><path d="M28.436 29.645a12.5 12.5 0 0 0 3.91-7.268l-6.063-.961a6.36 6.36 0 0 1-1.99 3.698l4.143 4.53z" fill="#cfcdcd" fill-opacity=".6"/><path d="M32.341 22.408a12.5 12.5 0 0 0-3.096-10.401l-4.542 4.134a6.37 6.37 0 0 1 1.392 2.466 6.36 6.36 0 0 1 .183 2.825l6.063.976z" class="D"/><path d="M29.222 11.983a12.5 12.5 0 0 0-14.821-2.738l2.754 5.497a6.35 6.35 0 0 1 7.532 1.391l4.536-4.15z" class="T"/><path d="M14.538 9.177a12.5 12.5 0 0 0 1.991 23.252l1.71-5.915a6.34 6.34 0 0 1-4.558-5.553 6.34 6.34 0 0 1 .805-3.674 6.35 6.35 0 0 1 2.744-2.573l-2.69-5.538z" fill="#cbc9c9"/></g><defs><clipPath id="A"><path transform="translate(7 7)" d="M0 0h26v26H0z" class="U"/></clipPath><path id="B" d="M649.501 25.4l-4.739-2.844 4.778-2.826 4.499 2.823-4.538 2.847z"/><path id="C" d="M740.001 21.903c1.052 0 1.905-.853 1.905-1.905s-.853-1.905-1.905-1.905-1.905.853-1.905 1.905.853 1.905 1.905 1.905z"/><path id="D" d="M931.472 26.107c0 .947-.777 1.714-1.736 1.714-.458.003-.897-.176-1.223-.497s-.51-.759-.513-1.217c0-.947.777-1.714 1.736-1.714s1.736.767 1.736 1.714z"/><path id="E" d="M1669.92 11.664c1.149 0 2.08-.934 2.08-2.085a2.08 2.08 0 0 0-2.08-2.084 2.08 2.08 0 0 0-2.08 2.084c0 1.151.93 2.085 2.08 2.085z"/><path id="F" d="M1669.92 32.505c1.149 0 2.08-.933 2.08-2.084a2.08 2.08 0 0 0-2.08-2.084 2.08 2.08 0 0 0-2.08 2.084c0 1.15.93 2.084 2.08 2.084z"/><path id="G" d="M1660.904 13.052a2.08 2.08 0 0 0 1.472-3.557 2.08 2.08 0 0 0-1.472-.611c-1.149 0-2.08.933-2.08 2.084s.931 2.084 2.08 2.084z"/><path id="H" d="M1660.904 29.726a2.08 2.08 0 0 0 1.472-3.558 2.08 2.08 0 0 0-1.472-.611c-1.149 0-2.08.933-2.08 2.084s.931 2.085 2.08 2.085z"/><path id="I" d="M1650.502 16.44c.223.096.455.147.694.147s.47-.051.693-.147v10.053c-.219-.095-.454-.145-.693-.146s-.471.05-.694.146V16.44z"/><path id="J" d="M1651.196 26.947c1.149 0 2.08.933 2.08 2.084a2.08 2.08 0 0 1-2.08 2.084 2.08 2.08 0 0 1-2.08-2.084 2.08 2.08 0 0 1 2.08-2.084z"/><path id="K" d="M1651.196 11.663c1.149 0 2.08.933 2.08 2.084a2.08 2.08 0 0 1-2.08 2.084 2.08 2.08 0 0 1-2.08-2.084c0-1.15.93-2.084 2.08-2.084z"/><path id="L" d="M1979.304 18.044l-1.594 1.193.266-1.193 1.328-3.58 6.64-1.79 2.922 3.58-2.656 4.177-6.906-2.387z"/><path id="M" d="M1972.93 23.448l6.65-5.07 6.908 2.135 5.372-8.27 5.372 4.001"/></defs></g><path d="M120 0h40v40h-40z" class="U"/><path d="M152.5 26.25a12.5 12.5 0 0 0-8.629-11.886L140 26.25h12.5z" class="f"/><path d="M143.99 14.404a12.5 12.5 0 0 0-7.721-.084L140 26.25l3.99-11.846z" class="D"/><path d="M136.639 14.21a12.5 12.5 0 0 0-7.995 6.815L140 26.25l-3.361-12.04z" fill="#767676"/><path d="M128.658 20.996a12.5 12.5 0 0 0-1.158 5.244l12.5.01-11.342-5.254z" fill="#cbc9c9"/><path d="M192.488 15.678a13 13 0 0 0-5.996-7.236l-3.04 5.446c1.473.822 2.585 2.165 3.119 3.764l5.916-1.975z" class="T"/><path d="M169.759 27.597a13 13 0 0 0 9.887 5.187l.247-6.281c-.997-.039-1.972-.3-2.855-.763s-1.652-1.118-2.251-1.916l-5.028 3.773z" class="f"/><path d="M172.472 11.205a11.52 11.52 0 0 0-3.741 7.082c-.36 2.732.27 5.503 1.777 7.81l4.019-2.626c-.879-1.346-1.247-2.963-1.037-4.556s.985-3.06 2.183-4.132l-3.201-3.578zm8.275 20.084c1.673-.053 3.402-.468 4.888-1.26a11.28 11.28 0 0 0 3.789-3.294c1.008-1.376 1.703-2.968 2.035-4.658s.291-3.435-.119-5.106l-4.459 1.161c.241.984.265 2.012.07 3.007s-.605 1.932-1.198 2.743-1.356 1.473-2.231 1.94a6.44 6.44 0 0 1-2.826.756l.051 4.712z" class="T"/><path d="M184.06 11.241a9.4 9.4 0 0 0-9.651 1.113l1.675 2.168a6.66 6.66 0 0 1 6.839-.789l1.138-2.492z" class="f"/><path d="M185.887 20.283c-.099 1.157-.546 2.257-1.282 3.156a5.75 5.75 0 0 1-6.247 1.82 5.75 5.75 0 0 1-2.775-1.974l2.271-1.734a2.89 2.89 0 0 0 1.397.993c.555.182 1.153.193 1.714.029a2.9 2.9 0 0 0 2.075-2.533l2.847.243zm-10.821 2.19a5.75 5.75 0 0 1 4.502-8.402l.292 2.843c-.471.048-.923.212-1.316.475s-.716.62-.939 1.037-.341.883-.343 1.357.113.94.333 1.359l-2.529 1.331zm5.359-8.426a5.75 5.75 0 0 1 3.79 1.67c1.012 1.008 1.613 2.356 1.686 3.783l-2.854.146a2.9 2.9 0 0 0-.848-1.904c-.509-.508-1.189-.807-1.907-.84l.134-2.855z" class="k"/><circle cx="20" cy="20" r="12.5" transform="matrix(.473473 -.880808 .880808 .473473 192.91437 28.146694)" class="a"/><path d="M225.918 8.99a12.5 12.5 0 0 1 6.342 13.447 12.5 12.5 0 0 1-11.003 9.999 12.5 12.5 0 0 1-12.782-7.595 12.5 12.5 0 0 1 3.521-14.444L220 20l5.918-11.01z" class="O"/><path d="M232.499 19.825a12.5 12.5 0 0 1-7.554 11.656 12.5 12.5 0 0 1-13.659-2.518 12.5 12.5 0 0 1-2.901-13.583 12.5 12.5 0 0 1 11.439-7.878L220 20l12.499-.175z" class="F"/><g transform="translate(240)" class="L"><mask id="N" maskUnits="userSpaceOnUse" x="7" y="7" width="26" height="26" mask-type="alpha"><path d="M20 33c7.18 0 13-5.82 13-13S27.18 7 20 7 7 12.82 7 20s5.82 13 13 13zm0-6a7 7 0 1 0 0-14 7 7 0 1 0 0 14z" class="G U"/></mask><g mask="url(#N)"><circle cx="20" cy="20" r="12.5" transform="rotate(298.144 20 20)" class="a"/><path d="M25.896 8.978a12.5 12.5 0 0 1 6.369 13.434 12.5 12.5 0 0 1-10.982 10.022 12.5 12.5 0 0 1-12.797-7.568 12.5 12.5 0 0 1 3.492-14.452L20 20l5.896-11.022z" class="O"/><path d="M32.499 19.799a12.5 12.5 0 0 1-7.53 11.671 12.5 12.5 0 0 1-13.664-2.49 12.5 12.5 0 0 1-2.928-13.577 12.5 12.5 0 0 1 11.423-7.901L20 20l12.498-.201z" class="F"/></g></g><path d="M298.611 7.5a13.89 13.89 0 0 1 9.821 4.068 13.89 13.89 0 0 1 4.068 9.821h-13.889V7.5z" class="K"/><path d="M311.112 21.388a12.5 12.5 0 0 1-6.083 10.727l-6.417-10.727h12.5z" class="E"/><path d="M304.335 30.913a11.11 11.11 0 0 1-10.959.277l5.235-9.801 5.724 9.524z" class="k"/><path d="M294.064 29.982a9.72 9.72 0 0 1-5.162-8.084l9.709-.509-4.547 8.593z" class="K"/><path d="M290.291 21.832c-.059-1.104.103-2.209.475-3.25s.949-1.998 1.695-2.814l6.152 5.621-8.321.443z" fill="#767676"/><path d="M293.45 16.705c.615-.674 1.356-1.22 2.181-1.608s2.027-.616 2.938-.658l.042.005v.695.694 2.083 1.389 1.389.695l-.029-.005-5.132-4.679z" class="k"/><circle cx="330.476" cy="11.43" r="4.762" class="Q"/><g class="f"><circle cx="335.714" cy="29.524" r="3.81"/><circle cx="348.572" cy="11.429" r="5.714"/></g><circle cx="348.572" cy="27.617" r="4.762" class="Q"/><g class="f"><circle cx="339.048" cy="20.001" r="3.81"/><circle cx="328.095" cy="22.362" r="1.905"/></g><g transform="translate(360)" class="L"><mask id="O" maskUnits="userSpaceOnUse" x="24" y="1" width="12" height="12"><path d="M35.625 1.25h-11.25V12.5h11.25V1.25z" class="U"/></mask><g mask="url(#O)" class="Q"><path d="M33.141 3.027c-1.734-1.734-4.547-1.734-6.281 0a4.5 4.5 0 0 0 0 6.328L30 12.496l3.141-3.188c1.734-1.687 1.734-4.547 0-6.281zM30 7.105a.94.94 0 0 1-.937-.937A.94.94 0 0 1 30 5.23a.94.94 0 0 1 .938.938.94.94 0 0 1-.937.937z"/></g><mask id="P" maskUnits="userSpaceOnUse" x="3" y="21" width="12" height="12"><path d="M15 21.25H3.75V32.5H15V21.25Z" class="U"/></mask><g mask="url(#P)" class="Q"><path d="M12.516 23.027c-1.734-1.734-4.547-1.734-6.281 0a4.5 4.5 0 0 0 0 6.328l3.141 3.141 3.141-3.187c1.734-1.687 1.734-4.547 0-6.281zm-3.141 4.078a.94.94 0 0 1-.937-.937.94.94 0 0 1 .938-.937.94.94 0 0 1 .938.938.94.94 0 0 1-.938.938z"/></g><path d="M28.747 12.419a.94.94 0 0 1-.853 1.015l-6.155.535 2.106 11.131-12.673 9.099a.94.94 0 0 1-1.308-.215.94.94 0 0 1 .215-1.308l11.702-8.402-2.269-11.994 8.22-.715a.94.94 0 0 1 1.015.853z" class="O"/></g><g class="O"><path d="M414.938 6.25l4.375 2.5v5.063l-4.375 2.563-4.437-2.562V8.75l4.438-2.5z" class="b"/><path d="M414.938 23.625l4.375 2.563v5.063l-4.375 2.5-4.437-2.5v-5.062l4.438-2.562z" class="V"/></g><g class="Q"><path d="M425.064 6.25l4.438 2.5v5.063l-4.437 2.563-4.375-2.562V8.75l4.375-2.5z"/><path d="M425.064 23.625l4.438 2.563v5.063l-4.437 2.5-4.375-2.5v-5.062l4.375-2.562z" class="W"/><path d="M409.875 14.938l4.375 2.5v5.125l-4.375 2.5-4.437-2.5v-5.125l4.438-2.5z"/><path d="M420 14.938l4.375 2.5v5.125l-4.375 2.5-4.375-2.5v-5.125l4.375-2.5z" class="W"/></g><path d="M430.125 14.938l4.438 2.5v5.125l-4.437 2.5-4.375-2.5v-5.125l4.375-2.5z" class="O V"/><path d="M466.419 20.995l-2.713 2.713-2.712-2.713a8.28 8.28 0 0 1-5.562-7.825c0-2.195.872-4.299 2.424-5.851s3.657-2.424 5.851-2.424 4.3.872 5.851 2.424 2.424 3.657 2.424 5.851a8.28 8.28 0 0 1-5.562 7.825zm-2.713-3.306c.893 0 1.765-.265 2.507-.761s1.32-1.201 1.662-2.025a4.51 4.51 0 0 0 .257-2.607c-.174-.875-.604-1.679-1.235-2.31s-1.435-1.061-2.31-1.235a4.51 4.51 0 0 0-2.607.257c-.825.342-1.529.92-2.025 1.662s-.761 1.615-.761 2.507c0 1.197.476 2.345 1.322 3.191s1.994 1.322 3.191 1.322z" class="Q"/><path d="M451.675 30.494l-1.525 1.525-1.525-1.525a4.65 4.65 0 0 1-3.125-4.375 4.65 4.65 0 0 1 9.3 0 4.65 4.65 0 0 1-3.125 4.375zm-1.525-1.875a2.54 2.54 0 0 0 2.345-1.567c.192-.464.242-.974.144-1.466s-.339-.944-.694-1.299a2.53 2.53 0 0 0-1.299-.694 2.54 2.54 0 0 0-2.843 3.464 2.54 2.54 0 0 0 .549.827 2.53 2.53 0 0 0 .825.553 2.54 2.54 0 0 0 .974.194v-.012zm20.381 6.079l-1.375 1.375-1.375-1.375a4.21 4.21 0 0 1-2.825-3.975 4.2 4.2 0 0 1 8.4 0c0 .874-.271 1.726-.778 2.439s-1.222 1.249-2.047 1.536zm-1.375-1.681c.454.002.899-.13 1.278-.381s.675-.609.85-1.028a2.3 2.3 0 0 0 .135-1.327 2.29 2.29 0 0 0-.627-1.178c-.321-.322-.73-.541-1.176-.63a2.29 2.29 0 0 0-1.327.131c-.419.174-.778.469-1.03.848a2.29 2.29 0 0 0-.384 1.277c.002.605.242 1.185.67 1.614a2.29 2.29 0 0 0 1.612.674z" class="O"/><g class="Q"><path d="M495.65 14.426l-9.575 5.444-.956 7.131 7.112 6.644h5.762l4.256-4.538 2.406-10.306-9.006-4.375z"/><path d="M513 16.438l-6.913 2.512-2.4 10.269 4.6 4.425h3.869l2.263-6.45L513 16.438z" class="W"/></g><g class="O"><path d="M502.931 30.469l-2.975 3.175h6.269l-3.294-3.175zm-6.713-17.356l9.306 4.525 7.331-2.6-1.05-7.85h-17.281l1.694 5.925z" class="V"/></g><g class="Q"><path d="M492.994 7.438l-5.663 2.387L486.3 18.1l8.475-4.819-1.781-5.844zm59.425 5.689c-1.45-2.706-5.062-3.569-8.044-1.875a7.14 7.14 0 0 0-1.031.706c-1.706 1.337-1.325 1.875-3.75 3.056-1.419.669-2.137.675-4.3.875l-1.4.131c-.613.111-1.212.287-1.788.525-4.15 1.706-6.319 6.163-4.85 9.963s6.019 5.494 10.169 3.794a8.75 8.75 0 0 0 2.431-1.55l.038-.044c.269-.25.5-.488.712-.713a1.65 1.65 0 0 0 .2-.225l.106-.119c1.875-2.206 1.25-3.125 3.063-4.619 1.487-1.206 3.381-.594 5.625-1.875 3.019-1.687 4.269-5.262 2.819-8.031zM536.25 27.871a5.43 5.43 0 0 1-1.413.369c-.993.158-2.011-.023-2.888-.514s-1.564-1.263-1.949-2.192c-.9-2.325.425-5.05 2.956-6.087a5.21 5.21 0 0 1 1.419-.363 4.47 4.47 0 0 1 4.819 2.7c.925 2.325-.406 5.05-2.944 6.087z" class="W"/><path opacity=".36" d="M555.625 11.359a9.1 9.1 0 0 0-9.219-4.675 10.38 10.38 0 0 0-3.825 1.25 10.84 10.84 0 0 0-1.494 1.031 12.59 12.59 0 0 0-1.769 1.706 2.82 2.82 0 0 1-1.25.906c-.44.225-.92.359-1.412.394l-.906.087-.794.075-1.456.137h-.125-.113a11.77 11.77 0 0 0-2.5.738c-6 2.456-9.069 9.106-6.875 14.819.91 2.26 2.545 4.153 4.648 5.383a10.99 10.99 0 0 0 6.971 1.411 12.62 12.62 0 0 0 3.244-.844 12.5 12.5 0 0 0 3.287-1.994l.513-.444.031-.05.625-.625c.131-.137.256-.281.369-.412l.081-.094c.887-1.02 1.602-2.176 2.119-3.425.225-.544.225-.544.425-.713a5.68 5.68 0 0 1 .975-.2 11.74 11.74 0 0 0 4.181-1.369 10.35 10.35 0 0 0 4.925-6.187 9.33 9.33 0 0 0-.656-6.906zm-5.856 10.056a8.71 8.71 0 0 1-3.163 1.006 4.85 4.85 0 0 0-2.413.85 4.41 4.41 0 0 0-1.456 2.025 8.86 8.86 0 0 1-1.569 2.556l-.062.069a3.24 3.24 0 0 1-.269.294c-.194.219-.437.456-.712.713l-.056.056-.075.056a9 9 0 0 1-2.5 1.525 9.19 9.19 0 0 1-2.4.625c-3.669.431-6.956-1.419-8.175-4.594-1.531-3.95.725-8.6 5-10.369a9.37 9.37 0 0 1 1.875-.544l1.431-.137.563-.044 1.25-.125a6.8 6.8 0 0 0 2.406-.675 5.88 5.88 0 0 0 2.356-1.725 9.16 9.16 0 0 1 1.325-1.287 7.16 7.16 0 0 1 1.069-.731 6.94 6.94 0 0 1 2.6-.85 5.78 5.78 0 0 1 3.394.535 5.79 5.79 0 0 1 2.493 2.365c1.538 2.875.225 6.656-2.913 8.406zm-9.143 6.577c-.215.257-.451.495-.706.712l.706-.712z"/></g><path d="M536.144 27.581c-2.388.969-5 0-5.831-2.162s.406-4.719 2.781-5.687 5 0 5.831 2.162-.406 4.713-2.781 5.688zm59.98 8.855c-.25 0-.5-.125-.687-.312l-14.75-16.062c-.375-.375-.312-1 .063-1.312.375-.375 1-.312 1.313.063l14.813 16.125c.375.375.313 1-.062 1.313-.25.125-.437.188-.687.188z" class="O"/><path d="M581.376 21.003c-.375 0-.75-.125-1.062-.375a1.57 1.57 0 0 1-.125-2.187l11.563-13.125a1.57 1.57 0 0 1 2.188-.125 1.57 1.57 0 0 1 .125 2.188L582.501 20.44c-.312.375-.687.563-1.125.563z" class="Q"/><path d="M581.374 20.37c-.312 0-.625-.187-.812-.5l-7.625-13.5c-.25-.437-.062-1 .375-1.25s1-.062 1.25.375l7.563 13.5c.25.438.063 1-.375 1.25-.062.063-.25.125-.375.125z" class="O"/><path d="M569.875 36.498c-.187 0-.375-.062-.562-.187-.437-.312-.5-.875-.25-1.312L580.5 18.873c.313-.437.875-.5 1.313-.25s.5.875.25 1.313L570.687 36.06c-.187.313-.5.438-.812.438z" class="Q"/><path d="M581.374 20.064c-.062 0-.187 0-.25-.062l-17.813-8.75c-.312-.125-.437-.5-.312-.812s.5-.437.813-.312l17.813 8.75c.313.125.438.5.313.813-.125.25-.375.375-.562.375z" class="O"/><path d="M627.868 34.066h-15.737l-7.875-13.638 7.875-13.631h15.737l7.875 13.631-7.875 13.638zm-14.375-2.394h12.994l6.487-11.25-6.487-11.25h-12.975l-6.487 11.25 6.469 11.25z" class="Q"/><path d="M615.407 20.538v3.081h-1.325v-7.181h1.325v2.881h2.919v-2.881h1.319v7.181h-1.319v-3.081h-2.919zm5.711 2.615l.375-1.044a3.68 3.68 0 0 0 .869.381c.306.082.621.122.938.119.386.025.768-.091 1.075-.325a1.13 1.13 0 0 0 .381-.913c.008-.152-.027-.303-.101-.435a.81.81 0 0 0-.318-.315c-.406-.164-.844-.233-1.281-.2h-.719v-1.05h.688a3.35 3.35 0 0 0 .725-.094 1.31 1.31 0 0 0 .481-.181c.132-.085.242-.201.319-.338a.99.99 0 0 0 .094-.456.71.71 0 0 0-.319-.625 1.67 1.67 0 0 0-.937-.213 2.85 2.85 0 0 0-.944.15 3.13 3.13 0 0 0-.838.456l-.437-1.006a3.09 3.09 0 0 1 1.038-.519 4.32 4.32 0 0 1 1.25-.194c.625-.04 1.244.134 1.756.494a1.7 1.7 0 0 1 .48.625 1.69 1.69 0 0 1 .145.775c.02.368-.101.73-.337 1.012-.25.268-.564.468-.913.581.393.054.758.231 1.044.506a1.44 1.44 0 0 1 .4 1.063 2.05 2.05 0 0 1-.159.944c-.127.297-.323.561-.572.768-.575.407-1.271.607-1.975.569a4.23 4.23 0 0 1-2.206-.538z" fill="#6a7485"/><g class="X"><use xlink:href="#B" class="b"/><use xlink:href="#B" x="5.187" y="-3.082"/><use xlink:href="#B" x="10.307" y="-11.328"/><path d="M654.688 28.501l-4.739-2.844 4.778-2.826 4.499 2.823-4.538 2.846z"/><use xlink:href="#B" x="10.376" y="0.023" class="b"/><use xlink:href="#B" x="15.53" y="-3.07"/><use xlink:href="#B" x="10.342" y="6.195" class="b"/><use xlink:href="#B" x="15.53" y="3.113"/><use xlink:href="#B" x="21.199" y="0.023" class="V"/></g><path d="M695.188 7H687v8.188h8.188V7z" class="M W"/><path d="M704.062 7h-8.187v8.188h8.188V7z" class="O W"/><path d="M712.939 7h-8.187v8.188h8.188V7z" class="Q"/><path d="M695.188 15.875H687v8.188h8.188v-8.187z" class="M V"/><g class="O"><path d="M704.062 15.875h-8.187v8.188h8.188v-8.187z"/><path d="M712.939 15.875h-8.187v8.188h8.188v-8.187z" class="W"/></g><g class="Q"><path d="M695.188 24.75H687v8.188h8.188V24.75z"/><path d="M704.062 24.75h-8.187v8.188h8.188V24.75z" class="V"/></g><path d="M712.939 24.75h-8.187v8.188h8.188V24.75z" class="M V"/><g class="O"><use xlink:href="#C" opacity=".5"/><use xlink:href="#C" x="-11.429"/><use xlink:href="#C" y="10.477"/></g><g class="Q"><use xlink:href="#C" x="11.427"/><use xlink:href="#C" x="-11.429" y="10.477"/><use xlink:href="#C" x="11.427" y="10.477"/><use xlink:href="#C" x="-11.429" y="-10.476"/><use xlink:href="#C" x="11.427" y="-10.476"/><use xlink:href="#C" y="-10.476"/><path d="M781.564 21.5a.94.94 0 0 1-.875-.625c-1.687-6.188-5.5-13.562-10.5-13.937-1.938-.125-3.5.938-4.375 3-.187.437-.687.687-1.187.437-.437-.187-.687-.687-.437-1.187 1.188-2.687 3.5-4.25 6.125-4.062 5.938.438 10.188 8.125 12.125 15.25.125.5-.125.938-.625 1.063-.062 0-.187.063-.25.063z"/></g><path d="M764.187 35.621h-.062c-.312-.062-.562-.375-.5-.687 1.5-10.812 6-18.937 10.938-19.875 1.938-.375 4.875.25 7.563 5.188.188.313.063.625-.25.813s-.625.063-.812-.25c-1.312-2.375-3.5-5.125-6.312-4.625-4.375.875-8.563 8.813-10 18.937 0 .313-.25.5-.562.5z" class="O"/><path d="M795.501 35.249c-.5 0-.875-.375-.875-.875 0-8.437-4.25-15.25-8.062-16.125-2.187-.5-3.5 1.25-4.187 2.75-.187.438-.75.625-1.187.438s-.625-.75-.437-1.187c1.375-2.937 3.625-4.312 6.188-3.75 5.625 1.25 9.438 10.25 9.438 17.875.063.438-.375.875-.875.875z" class="Q"/><path d="M781.563 20.434h-.312c-.812-.187-1.312-.937-1.125-1.75 2.188-10.875 6.438-12.937 8.75-13.25 2.75-.312 5.375 1.438 6.875 4.625.375.75 0 1.625-.687 1.938-.75.375-1.625 0-1.937-.687-.937-2-2.375-3.125-3.812-2.937-.937.125-4.25 1.25-6.187 10.875-.25.75-.875 1.188-1.562 1.188z" class="O"/><g class="G"><path d="M817.708 30V10h.808v20h-.808z" class="I"/><path d="M832 15h-13.481v-3.333h13.48L832 15zm-7.551 6.945h-5.932v-3.333h5.932v3.333z" class="J"/><path d="M808 25.002h9.707v3.332H808v-3.332z" class="S"/></g><g class="H"><path d="M856.025 7h-2.667v.889h2.667V7z"/><path d="M854.758 7h-2.666v.889h2.666V7zm-4.709 10h-2.667v.889h2.667V17zm8.824 5.872h-2.667v.889h2.667v-.889zM866.945 27h-2.665v.889h2.666V27zm-4.457-4.128h-2.668v.889h2.666v-.889zm9.72-14.217h-2.666v.889h2.666v-.889z"/></g><path d="M848.375 17h-3.75v16.25h3.75V17zm13.055 5.872h-3.75V33.25h3.75V22.872zm13.195-14.217h-3.75V33.25h3.75V8.655z" class="D"/><path d="M875.111 33.32H844v-1.25h31.111v1.25z" class="G I"/><path d="M857.108 7h-3.125v16.761h3.125V7z" class="J"/><path d="M852.733 7h-3.125v10.889h3.125V7zm17.254 20.872h-3.125V8.655h3.125v19.217z" class="N"/><path d="M865.612 27.872h-3.125v-5h3.125v5z" class="J"/><g class="G"><path d="M897.708 30V10h.808v20h-.808z" class="I"/><path d="M912 15h-13.481v-3.333h13.48L912 15zm-7.551 6.945h-5.932v-3.333h5.932v3.333z" class="S"/><path d="M888 25.002h9.707v3.332H888v-3.332z" class="J"/></g><path d="M938.459 8h-.694v24h.694V8z" class="I"/><path d="M948.528 13.484h-10.415v.686h10.415v-.686z" class="P"/><path d="M948.528 13.828c0 .946.777 1.714 1.736 1.714S952 14.774 952 13.828s-.777-1.715-1.736-1.715-1.736.768-1.736 1.715z" class="F"/><path d="M931.472 25.764h6.943v.685h-6.943v-.685z" class="P"/><use xlink:href="#D" class="F"/><path d="M988.528 13.484h-10.415v.686h10.415v-.686z" class="P"/><path d="M988.528 13.828c0 .946.777 1.714 1.736 1.714S992 14.774 992 13.828s-.777-1.715-1.736-1.715-1.736.768-1.736 1.715z" class="S"/><path d="M971.472 25.764h6.943v.685h-6.943v-.685z" class="P"/><use xlink:href="#D" x="40" class="J"/><path d="M978.459 8h-.694v24h.694V8z" class="I"/><path d="M1028.528 13.484h-10.415v.686h10.415v-.686z" class="S"/><path d="M1028.528 13.828c0 .946.777 1.714 1.736 1.714s1.736-.768 1.736-1.714-.777-1.715-1.736-1.715-1.736.768-1.736 1.715z" class="F"/><path d="M1011.472 25.764h6.943v.685h-6.943v-.685z" class="J"/><use xlink:href="#D" x="80" class="F"/><path d="M1018.459 8h-.694v24h.694V8z" class="I"/><g class="L"><g class="D"><path d="M1061.852 12.8V9.37H1050v3.43h11.852z"/><path d="M1061.852 15.886v-3.429h-.74v3.429h.74zm4.444 4.114v-3.43h-.74V20h.74zm3.704 4.114v-3.428h-.74v3.428h.74zm-10.37 4.457v-3.428h-.74v3.428h.74z"/><path d="M1066.296 17.258v-3.429h-5.185v3.429h5.185zm3.704 4.457v-3.429h-4.444v3.429H1070zm0 4.457v-3.43h-11.111v3.43H1070zm-10.37 4.457V27.2h-9.26v3.429h9.26z"/></g><path d="M1050.15 8v24" class="B l"/><path d="M1101.852 12.8V9.37H1090v3.43h11.852z" class="J"/><path d="M1101.852 15.886v-3.429h-.74v3.429h.74zm4.444 4.114v-3.43h-.74V20h.74zm3.704 4.114v-3.428h-.74v3.428h.74zm-10.37 4.457v-3.428h-.74v3.428h.74z" class="H"/><path d="M1106.296 17.258v-3.429h-5.185v3.429h5.185zm3.704 4.457v-3.429h-4.444v3.429H1110z" class="J"/><path d="M1110 26.172v-3.43h-11.111v3.43H1110zm-10.37 4.457V27.2h-9.26v3.429h9.26z" class="S"/><path d="M1090.15 8v24" class="B l"/><path d="M1141.852 12.8V9.37H1130v3.43h11.852z" class="S"/><path d="M1141.852 15.886v-3.429h-.74v3.429h.74zm4.444 4.114v-3.43h-.74V20h.74zm3.704 4.114v-3.428h-.74v3.428h.74zm-10.37 4.457v-3.428h-.74v3.428h.74z" class="H"/><path d="M1146.296 17.258v-3.429h-5.185v3.429h5.185zm3.704 4.457v-3.429h-4.444v3.429H1150z" class="S"/><path d="M1150 26.172v-3.43h-11.111v3.43H1150zm-10.37 4.457V27.2h-9.26v3.429h9.26z" class="J"/><path d="M1130.15 8v24" class="B l"/></g><g class="G"><path d="M1177.708 30V10h.808v20h-.808z" class="I"/><path d="M1192 15h-13.481v-3.333h13.48L1192 15zm-7.551 6.945h-5.932v-3.333h5.932v3.333zM1168 25.002h9.707v3.332H1168v-3.332z" class="D"/><path d="M1214.702 9a.56.56 0 0 0-.126-.958.56.56 0 0 0-.553.073c-3.701 2.844-5.358 7.614-4.218 12.14s4.86 7.941 9.467 8.692v1.371h-1.15c-.846.001-1.531.687-1.532 1.533v.766c.001.211.172.382.383.383h8.429c.211-.001.382-.172.383-.383v-.766c-.001-.846-.686-1.532-1.532-1.533h-1.15v-1.383c2.913-.493 5.533-2.069 7.332-4.413.187-.244.141-.594-.103-.781s-.594-.141-.781.103a10.29 10.29 0 0 1-.42.512l-1.256-1.334c1.742-2.03 2.467-4.742 1.97-7.37s-2.163-4.888-4.526-6.141l-.012-.006a8.79 8.79 0 0 0-9.944 1.181l-1.185-1.256a10.78 10.78 0 0 1 .524-.43zm-.01 2.345l-.127.12-1.185-1.259c-2.723 2.942-3.551 7.17-2.137 10.922 1.242 3.302 4.048 5.768 7.482 6.576s7.045-.146 9.63-2.546l-1.258-1.336a8.81 8.81 0 0 1-12.405-12.477zm4.8-1.916c.376 1.307-.057 1.999-.478 2.669-.355.563-.722 1.146-.362 1.925.14.302.076.447.055.495-.175.391-1.046.66-1.748.875l-.005.002c-1.011.31-2.058.632-2.058 1.498.038.289-.066.578-.279.776-.265.186-.789.17-1.458-.038l-.008-.13c-.005-.069-.01-.139-.01-.21a8.06 8.06 0 0 1 6.35-7.862zm5.649.864c2.525 1.425 4.089 4.099 4.092 6.999-.003.439-.042.877-.116 1.31-.664.03-1.14-.114-1.414-.435-.528-.616-.231-1.732-.231-1.732a1.82 1.82 0 0 0-.207-1.567c-.327-.416-.876-.6-1.636-.548a1.5 1.5 0 0 1-1.212-.309c-.44-.438-.444-1.377-.384-2.327.026-.407.41-.886 1.108-1.391zm-2.24 8.708c.447-.019.881.157 1.188.483.194.226.067.904-.035 1.449-.164.872-.368 1.959.542 2.273.372.201.665.523.83.912a7.98 7.98 0 0 1-8.946-.315 2.65 2.65 0 0 1 1.173-1.923 2.51 2.51 0 0 1 1.876-.422c.668.276 1.429.21 2.04-.178a1.79 1.79 0 0 0 .684-1.6c-.012-.446.19-.576.343-.635.1-.025.202-.04.304-.044zm-5.291-1.214c.716-.576 1.346-.871 1.879-.878a1.35 1.35 0 0 1 .222.015.98.98 0 0 1 .912.814c.08.582-.377 1.255-1.064 1.565a1.81 1.81 0 0 1-.751.153c-.29-.004-.578-.051-.854-.14-.334-.094-.589-.364-.663-.703-.058-.313.066-.633.319-.826z" class="X"/></g><path d="M1248 8h6v21h-6zm9 2h6v15h-6z" class="S"/><path d="M1266 17h6v14h-6z" class="J"/><g class="L"><g class="C"><path d="M1288.298 31.828l4.245-16.931 1.945.677 3.495 2.71 1.997-3.387 2.996 6.095 4.993-5.418 3.994-5.418m-3.993 21.672h-15.427" class="m"/><path d="M1311.565 31.828h-23.068l3.648-10.457 1.946.836 3.245-.836 2.297-1.395 6.19-7.542 1.748 1.293" stroke="#bdbdbd"/><path d="M1311.963 26.627l-3.38-3.418-2.689 2.695-2.88-2.695h-2.585l-3.58-3.233-1.59 6.65-3.183 5.202h-3.58" class="Y"/><path d="M1288.1 31.784h23.863m-23.926.606V7.61" class="B"/></g><path d="M1333.775 23.94h-5.658v7.878h5.658V23.94z" class="D"/><path d="M1333.775 15.455h-5.658v8.484h5.658v-8.484z" class="E"/><path d="M1333.775 8.182h-5.658v7.273h5.658V8.182z" class="H"/><path d="M1342.264 26.364h-5.66v5.454h5.66v-5.454z" class="D"/><path d="M1342.264 13.03h-5.66v13.334h5.66V13.03z" class="E"/><path d="M1342.264 8.182h-5.66v4.848h5.66V8.182z" class="H"/><path d="M1351.318 22.727h-5.66v9.091h5.66v-9.09z" class="D"/><path d="M1351.318 14.242h-5.66v8.485h5.66v-8.485z" class="E"/><path d="M1351.318 8.182h-5.66v6.06h5.66v-6.06z" class="H"/><path d="M1325.916 31.414h28.168" class="B C"/></g><path d="M1368 8.64h10.64V32H1368zm11.6-.16h3.84V32h-3.84zm4.8.08h7.6v23.4h-7.6z" class="X"/><path d="M1408 17.92h8.64V32H1408z" class="F"/><path d="M1408 10h8.64v7.04H1408z" class="I"/><path d="M1417.6 24.8h3.84V32h-3.84z" class="F"/><path d="M1417.6 20h3.84v4.2h-3.84z" class="I"/><path d="M1417.6 17h3.84v2.4h-3.84z" class="E"/><path d="M1422.4 15.28h9.6v4.56h-9.6z" class="I"/><path d="M1422.4 13h9.6v1.52h-9.6z" class="E"/><path d="M1422.4 20.6h9.6V32h-9.6z" class="F"/><path d="M1447 17h9v15h-9V17zm10-9h5v24h-5V8zm6 4h9v20h-9V12z" class="X"/><g class="G"><path d="M1500.716 7.503l-.263-.003v.24h.2v-.038h.059l.004-.2zM1500.453 20h-.313l.06.09-.024.056.037.015v.04h.06l.022.032.009.042.017-.004.026.04.08-.053.055.053.027-.027.037.015.029-.07.075.014.007-.038.039-.008-.015-.075.09-.037-.018-.045.011-.011-.027-.028-.017-.04.044-.066-.04-.027.004-.017-.042-.008-.02-.014-.013-.03v-.04h-.016l-.019-.044-.076.032-.09-.06V20zm-12.26 0v.2h-.038v.059l-.2.004-.001-.263h.24zm-.215.788l.044.524.199-.02-.044-.516-.2.012zm.308 2.079l.195-.046.13.501-.194.054-.13-.509zm.284 1.012l.19-.062.171.489-.187.07-.174-.497zm.368.985l.184-.077.212.472-.18.085-.216-.48zm.45.951l.177-.093.25.453-.173.1-.254-.46zm.528.91l.168-.108.032.05.049-.033.222.332-.049.033.034.048-.164.115-.036-.052-.256-.386zm.602.861l.16-.121.322.405-.154.128-.328-.412zm.673.809l.148-.135.356.376-.143.14-.361-.381zm.738.748l.137-.146.386.345-.13.152-.393-.35zm.799.684l.124-.157.413.311-.117.163-.42-.317zm.853.615l.11-.167.438.275-.102.172-.446-.28zm.902.54l.096-.175.46.237-.088.18-.468-.241zm.944.463l.08-.183.055.024.015-.036.37.153-.016.036.055.021-.073.187-.058-.023-.428-.179zm.98.382l.065-.189.493.157-.057.192-.5-.16zm1.009.299l.048-.194.505.115-.04.196-.513-.117zm1.03.212l.032-.198.512.073-.024.198-.52-.073zm1.044.125l.015-.2.517.03-.007.2-.525-.03zm-11.314-10.11l.197-.038-.087-.51-.198.03.088.518zm.498-2.353v.2h.48V20h-.48zm.962 0v.2h.48V20h-.48zm.961 0v.2h.48V20h-.48zm.962 0v.2h.48V20h-.48zm.961 0v.2h.481V20h-.48zm.962 0v.2h.48V20h-.48zm.961 0v.2h.481V20h-.48zm.962 0v.2h.48V20h-.48zm.961 0v.2h.481V20h-.48zm.962 0v.2h.48V20h-.48zm.962 0v.2h.48V20h-.48zm.961 0v.2h.48V20h-.48zm1.202-.721h.2v-.48h-.2v.48zm0-.962h.2v-.48h-.2v.48zm0-.961h.2v-.48h-.2v.48zm0-.962h.2v-.48h-.2v.48zm0-.961h.2v-.481h-.2v.48zm0-.962h.2v-.48h-.2v.48zm0-.961h.2v-.481h-.2v.48zm0-.962h.2v-.48h-.2v.48zm0-.961h.2v-.481h-.2v.48zm0-.962h.2v-.48h-.2v.48zm0-.961h.2v-.481h-.2v.48zm0-.962h.2v-.48h-.2v.48zm-.538 11.898l-.434.29-.222-.333.433-.29.223.333zm-.867.58l-.433.288-.222-.332.433-.29.222.333zm-.866.578l-.433.29-.222-.333.433-.29.222.333zm-.866.579l-.433.289-.222-.333.433-.289.222.332zm-.866.578l-.433.29-.222-.333.433-.29.222.333zm-.866.579l-.433.29-.222-.333.433-.29.222.333zm-.866.579l-.433.29-.223-.334.434-.289.222.333zm-.866.578l-.433.29-.223-.333.433-.29.223.333zm-.866.58l-.434.288-.222-.332.433-.29.223.333zm-.867.578l-.433.29-.222-.333.433-.29.222.333zm-.866.579l-.433.289-.222-.333.433-.289.222.333zm11.737 5.852l-.098.02-.259.049-.035-.197.058-.01-.008-.039.393-.078.007.038.058-.012.043.195-.062.013-.097.021zm.67-.158l-.051-.194.497-.143.06.191-.506.146zm1.004-.313l-.067-.188.483-.184.075.185-.49.187zm.974-.395l-.083-.182.467-.225.09.179-.474.228zm.938-.476l-.098-.175.446-.263.105.17-.453.268zm.894-.553l-.112-.166.422-.3.12.161-.43.305zm.845-.627l-.126-.155.395-.334.133.15-.402.34zm.789-.695l-.139-.145.043-.04-.028-.028.283-.282.028.027.04-.042.145.138-.044.045-.07.072-.07.07-.071.071-.072.07-.045.044zm.728-.76l-.15-.131.334-.396.155.126-.34.402zm.661-.817l-.16-.119.299-.422.165.112-.304.43zm.59-.87l-.17-.105.263-.446.175.098-.268.453zm.516-.917l-.179-.09.225-.466.182.082-.229.474zm.436-.956l-.186-.076.185-.483.188.067-.187.492zm.354-.99l-.191-.06.143-.497.194.051-.146.505zm.27-1.017l-.196-.043.013-.057-.038-.008.078-.392.038.007.01-.058.197.035-.048.258-.04.197-.014.061zm.183-1.035l-.198-.027.058-.514.199.018-.059.523zm.096-1.048l-.2-.01.015-.517.2.002-.015.525zm.007-1.051l-.2.007-.029-.517.2-.015.03.525zm-.08-1.049l-.2.024-.072-.512.198-.032.073.52zm-.17-1.038l-.196.04-.115-.504.194-.048.117.512zm-.255-1.02l-.192.057-.157-.493.19-.065.159.502zm-.34-.994l-.187.072-.021-.055-.056.024-.153-.37.056-.023-.024-.054.183-.08.103.242.099.243zm-.423-.963l-.18.088-.237-.46.175-.096.242.468zm-.502-.924l-.172.103-.275-.439.167-.11.28.446zm-.579-.879l-.162.117-.311-.413.157-.124.316.42zm-.65-.826l-.151.13-.345-.386.146-.136.35.392zm-.716-.77l-.14.143-.377-.356.134-.148.383.362zm-.78-.706l-.127.154-.405-.323.121-.159.411.328zm-.835-.638l-.115.164-.048-.034-.033.05-.332-.223.032-.049-.05-.032.108-.168.053.034.333.222.052.036zm-.887-.566l-.1.173-.453-.25.093-.177.46.254zm-.93-.489l-.086.181-.473-.211.078-.185.48.215zm-.97-.409l-.07.187-.488-.17.062-.19.497.173zm-.999-.326l-.054.192-.501-.13.046-.194.51.132zm-1.024-.242l-.037.197-.51-.087.03-.198.517.088zm-1.04-.154l-.02.199-.516-.043.012-.2.524.044zm.348 24.82l-.026-.198-.514.058.018.2.522-.06zm-1.047.096l-.01-.2-.517.015.002.2.525-.015zm-.704-11.742l-.184.444-.37-.153.184-.444.37.153zm-.368.888l-.184.444-.37-.153.184-.444.37.153zm-.368.889l-.184.444-.37-.153.184-.445.37.154zm-.368.888l-.184.444-.37-.153.184-.444.37.153zm-.368.888l-.184.444-.37-.153.184-.444.37.153zm-.368.889l-.184.444-.37-.153.184-.444.37.153zm-.368.888l-.184.444-.37-.153.184-.444.37.153zm-.368.888l-.184.444-.37-.153.184-.444.37.153zm-.368.889l-.184.444-.37-.153.184-.444.37.153zm-.368.888l-.184.444-.37-.153.184-.444.37.153zm-.368.888l-.184.444-.37-.153.184-.444.37.153zm-.368.889l-.184.444-.37-.153.185-.444.37.153zm6.24 1.077l-.093-.472.392-.078.094.472-.392.078zm-.187-.944l-.094-.471.393-.078.093.471-.392.078zm-.188-.942l-.093-.472.392-.078.094.471-.392.079zm-.187-.944l-.094-.471.393-.078.093.471-.392.078zm-.188-.943l-.093-.471.392-.078.094.471-.393.078zm-.187-.943l-.094-.471.392-.078.094.471-.392.078zm-.188-.943l-.094-.471.393-.078.093.471-.392.078zm-.187-.943l-.094-.471.392-.078.094.471-.392.078zm-.188-.943l-.094-.471.392-.079.094.472-.392.078zm-.188-.943l-.093-.471.392-.078.094.471-.393.078zm-.187-.943l-.094-.472.392-.078.094.472-.392.078zm-.188-.943l-.093-.472.392-.078.094.472-.393.078zm8.15 7.252l-.34-.34.282-.282.34.34-.283.282zm-.68-.68l-.34-.34.282-.282.34.34-.282.283zm-.68-.68l-.34-.34.283-.282.34.34-.283.283zm-.68-.68l-.34-.34.283-.282.34.34-.283.283zm-.68-.68l-.34-.34.283-.282.34.34-.283.283zm-.68-.68l-.34-.34.283-.282.34.34-.283.283zm-.68-.68l-.34-.339.283-.283.34.34-.283.283zm-.68-.679l-.34-.34.283-.283.34.34-.283.283zm-.68-.68l-.34-.34.283-.283.34.34-.283.283zm-.68-.68l-.34-.34.283-.283.34.34-.283.283zm-.68-.68l-.34-.34.283-.282.34.34-.283.282zm-.68-.68l-.34-.34.283-.282.34.34-.283.282zm10.805 1.503l-.471-.094.078-.392.471.094-.078.392zm-.943-.187l-.471-.094.078-.393.471.094-.078.393zm-.943-.188l-.471-.094.078-.392.471.094-.078.392zm-.943-.188l-.471-.093.078-.393.471.094-.078.392zm-.943-.187l-.471-.094.078-.392.471.094-.078.392zm-.943-.188l-.471-.094.078-.392.471.094-.078.392zm-.943-.187l-.471-.094.078-.392.471.093-.078.393zm-.943-.188l-.471-.094.078-.392.471.094-.078.392zm-.943-.188l-.472-.093.078-.393.472.094-.078.393zm-.943-.187l-.472-.094.078-.392.472.094-.078.392zm-.943-.188l-.472-.093.078-.393.472.094-.078.392zm-.943-.187l-.472-.094.078-.392.472.093-.078.393zm9.762-4.73l-.48.199-.153-.37.48-.199.153.37zm-.962.398l-.481.2-.153-.37.481-.2.153.37zm-.962.399l-.481.199-.153-.37.48-.199.154.37zm-.963.398l-.48.2-.153-.37.48-.2.153.37zm-.962.399l-.48.2-.154-.37.481-.2.153.37zm-.962.398l-.48.2-.154-.37.481-.2.153.37zm-.962.399l-.48.2-.154-.37.481-.2.153.37zm-.962.399l-.481.199-.153-.37.48-.199.154.37zm-.962.398l-.482.2-.152-.37.48-.2.154.37zm-.962.399l-.482.199-.153-.37.482-.199.153.37zm-.963.398l-.48.2-.154-.37.48-.2.154.37zm5.397-9.319l-.29.433-.332-.222.29-.433.332.222zm-.579.866l-.29.434-.332-.223.29-.433.332.223zm-.579.867l-.289.433-.333-.223.29-.433.332.223zm-.578.866l-.29.433-.332-.222.29-.434.332.223zm-.58.866l-.288.433-.333-.222.29-.433.332.222zm-.578.866l-.29.433-.332-.222.29-.433.332.222zm-.579.866l-.289.433-.332-.222.289-.433.332.222zm-.578.866l-.29.433-.332-.222.29-.433.332.222zm-.579.866l-.29.433-.332-.222.29-.433.332.222zm-.579.866l-.289.434-.333-.223.29-.433.332.222zm-.578.867l-.29.433-.332-.223.289-.433.333.223z" class="F"/><path d="M1501.592 17.76c-.353-.136-.728-.206-1.106-.205v-2c.628 0 1.25.116 1.832.342s1.108.558 1.553.975a4.49 4.49 0 0 1 1.037 1.46c.24.546.365 1.13.365 1.722h-2a2.26 2.26 0 0 0-.195-.915 2.49 2.49 0 0 0-.577-.81 2.82 2.82 0 0 0-.909-.568z" class="T"/><path d="M1497.7 20.054c0 .31.064.62.194.915a2.5 2.5 0 0 0 .577.808 2.82 2.82 0 0 0 .909.57c.711.276 1.501.276 2.212 0a2.82 2.82 0 0 0 .909-.57 2.49 2.49 0 0 0 .577-.808c.13-.295.195-.605.195-.915h2a4.26 4.26 0 0 1-.365 1.721 4.49 4.49 0 0 1-1.037 1.46c-.445.418-.973.749-1.553.975-1.178.458-2.486.458-3.664 0a4.82 4.82 0 0 1-1.553-.975 4.49 4.49 0 0 1-1.037-1.46c-.24-.542-.364-1.128-.365-1.721h2z" fill="#bbb"/><path d="M1502.94 14.277a6.5 6.5 0 0 0-2.455-.48v-2a8.5 8.5 0 0 1 3.21.628c1.015.413 1.939 1.022 2.72 1.79a8.25 8.25 0 0 1 1.818 2.679c.421 1 .638 2.075.638 3.16h-2a6.14 6.14 0 0 0-.482-2.385 6.25 6.25 0 0 0-1.377-2.029c-.595-.585-1.3-1.048-2.073-1.363z" class="T"/><path d="M1505.012 24.466a6.19 6.19 0 0 0 1.859-4.413h2c0 2.19-.884 4.29-2.456 5.838-1.583 1.553-3.713 2.422-5.93 2.419-2.217.003-4.347-.866-5.93-2.419a8.19 8.19 0 0 1-2.455-5.838h2c0 1.65.665 3.237 1.859 4.413 1.209 1.184 2.834 1.846 4.526 1.843 1.692.003 3.318-.659 4.527-1.843z" fill="#bbb"/><path d="M1504.163 11.184c-1.166-.482-2.416-.73-3.678-.73v-2c3.078 0 6.031 1.222 8.209 3.397a11.6 11.6 0 0 1 3.4 8.202h-2c.001-3.884-2.341-7.386-5.931-8.869z" class="T"/><path d="M1507.28 26.84c1.801-1.799 2.814-4.241 2.814-6.787h2c0 3.076-1.223 6.026-3.4 8.202-4.534 4.531-11.883 4.531-16.417 0-2.177-2.175-3.4-5.125-3.4-8.202h2c0 2.546 1.013 4.988 2.814 6.787 3.754 3.751 9.836 3.751 13.59 0z" fill="#bbb"/></g><path d="M1540.846 17.704l-2.862 2.288-1.13 7.069 9.852 2.469 3.387-11.274-9.247-.552z" fill="#9a9793" class="b"/><path d="M1537.686 25.477l5.395-.982 1.307-4.729-3.725-7.226-8.936 5.755 5.959 7.182z" fill="#6b6b6b" class="b"/><g class="F G"><path d="M1541.077 7.605v.534h-.8v-.534h.8zm0 1.6v1.066h-.8V9.205h.8zm0 2.133v1.066h-.8v-1.066h.8zm0 2.132v1.067h-.8V13.47h.8zm0 2.133v1.066h-.8v-1.066h.8zm0 2.133v1.066h-.8v-1.066h.8zm0 2.133v.646l-.323.528-.683-.418.206-.336v-.42h.8zm-.853 2.038l-.529.864-.682-.418.53-.864.681.418zm-1.058 1.728l-.53.864-.682-.417.53-.864.682.417zm-1.059 1.729l-.529.864-.682-.418.53-.864.681.418zm-1.058 1.728l-.53.864-.682-.418.53-.864.682.418zm-1.059 1.728l-.529.864-.682-.418.529-.864.682.418zm-1.058 1.729l-.53.864-.682-.418.53-.864.682.418zm-1.059 1.728l-.264.432-.683-.418.265-.432.682.418z"/><path d="M1540.44 20.752l-.278-.436.674-.43.278.436-.674.43zm1.113 1.745l-.556-.872.674-.431.556.872-.674.43zm1.113 1.744l-.556-.872.674-.43.557.871-.675.43zm1.114 1.744l-.557-.872.674-.43.557.871-.674.43zm1.113 1.744l-.557-.872.675-.43.556.871-.674.43zm1.113 1.744l-.556-.872.674-.43.556.871-.674.43zm1.113 1.744l-.556-.872.674-.43.557.871-.675.43zm.835 1.308l-.278-.436.674-.43.279.435-.675.43z"/><path d="M1553.594 17.76l-.463.112-.186-.778.462-.111.187.778zm-1.388.333l-.925.222-.186-.778.925-.222.186.778zm-1.85.443l-.925.222-.187-.778.926-.222.186.778zm-1.85.443l-.925.222-.187-.778.925-.222.187.778zm-1.85.443l-.926.222-.186-.778.925-.222.186.778zm-1.85.443l-.926.222-.186-.778.925-.222.186.778zm-1.85.443l-.926.222-.186-.778.925-.222.186.778zm-1.851.443l-.463.111-.186-.778.463-.11.186.777z"/><path d="M1529.027 17.97l-.509-.121.186-.778.51.122-.187.778zm2.035.488l-1.017-.243.186-.779 1.018.244-.187.778zm2.036.488l-1.018-.244.187-.778 1.017.244-.186.778zm2.035.487l-1.017-.243.186-.778 1.018.243-.187.778zm2.036.488l-1.018-.244.186-.778 1.018.244-.186.778zm2.035.488l-1.018-.244.187-.778 1.017.244-.186.777zm1.527.365l-.51-.122.187-.778.51.122-.187.778z"/><path d="M1540.71 6.862l13.322 10.346-5.274 15.774h-15.645l-5.196-15.768 12.793-10.352zm.013 1.276l-11.64 9.419 4.753 14.425h14.202l4.82-14.419-12.135-9.425z"/></g><g class="L"><path d="M1574.964 27.464h-5.633v5.172h5.633v-5.172z" class="D"/><path d="M1574.964 16.259h-5.633v11.205h5.633V16.26z" class="E"/><path d="M1574.964 13.673h-5.633v2.586h5.633v-2.586z" class="H"/><path d="M1583.817 22.292h-5.633v10.344h5.633V22.292z" class="D"/><path d="M1583.817 17.12h-5.633v5.172h5.633v-5.171z" class="E"/><path d="M1583.83 8.797h-5.66v8.485h5.66V8.797z" class="H"/><path d="M1592.67 24.878h-5.634v7.758h5.634v-7.758z" class="D"/><path d="M1592.67 19.707h-5.634v5.171h5.634v-5.171z" class="E"/><path d="M1592.67 15.397h-5.634v4.31h5.634v-4.31z" class="H"/><path d="M1566.916 32.03h28.168" stroke-width="1.2" class="B"/></g><g class="G"><path d="M1609.31 11.886l2.12-2.122c.131-.13.342-.13.472 0l2.122 2.122c.13.13.13.341 0 .471s-.341.13-.472 0L1612 10.805v18.862c0 .184-.149.334-.333.334s-.333-.149-.333-.334V10.805l-1.552 1.552c-.13.13-.341.13-.471 0s-.13-.341 0-.471zm9.333 2.333l2.121-2.121c.13-.13.342-.13.472 0l2.121 2.121c.13.13.13.341 0 .471s-.341.13-.471 0l-1.553-1.552v11.529c0 .184-.149.334-.334.334s-.333-.149-.333-.334V13.138l-1.552 1.552c-.13.13-.341.13-.471 0s-.13-.341 0-.471z" stroke="#9cd740" class="S c o"/><g class="J"><path d="M1627.976 26.114l2.122 2.122c.13.13.34.13.471 0l2.121-2.122c.13-.13.13-.341 0-.471s-.341-.13-.471 0l-1.552 1.552V9.333c0-.184-.149-.334-.333-.334s-.333.149-.333.334v17.862l-1.552-1.552c-.13-.13-.341-.131-.471-.001s-.131.341-.001.471z" stroke="#ff000a" class="c o"/><path d="M1669.226 12.203V27.7h1.387V12.203h-1.387z"/></g></g><g class="F"><use xlink:href="#E"/><use xlink:href="#F"/></g><path d="M1660.21 24.948a2.84 2.84 0 0 1 1.388 0V13.592h-1.388v11.356z" class="G N"/><g class="F"><use xlink:href="#G"/><use xlink:href="#H"/></g><use xlink:href="#I" class="G N"/><g class="F"><use xlink:href="#J"/><use xlink:href="#K"/></g><g class="X"><path d="M1709.226 12.203V17.2h1.387v-4.997h-1.387zm0 10.5V27.7h1.387v-4.997h-1.387z" class="G"/><use xlink:href="#E" x="40"/><use xlink:href="#F" x="40"/><path d="M1700.21 17.448a2.84 2.84 0 0 1 1.388 0v-3.856h-1.388v3.856zm0 7.5a2.84 2.84 0 0 1 1.388 0v-2.356h-1.388v2.357z" class="G"/><use xlink:href="#G" x="40"/><use xlink:href="#H" x="40"/><use xlink:href="#I" x="40" class="G"/><use xlink:href="#J" x="40"/><use xlink:href="#K" x="40"/><path d="M1709.92 22.084c1.149 0 2.08-.933 2.08-2.084a2.08 2.08 0 0 0-2.08-2.084 2.084 2.084 0 1 0 0 4.168zm-9.016 0a2.08 2.08 0 1 0 0-4.169c-1.149 0-2.08.934-2.08 2.085s.931 2.084 2.08 2.084z"/></g><path d="M1728.5 16.5h9v16h-9z" class="F"/><path d="M1728.5 7.5h9v8h-9z" class="I"/><path d="M1738.5 20.5h4v12h-4z" class="F"/><path d="M1738.5 12.5h4v7h-4z" class="I"/><path d="M1738.5 7.5h4v4h-4z" class="E"/><path d="M1743.5 10.5h10v6h-10z" class="I"/><path d="M1743.5 7.5h10v2h-10z" class="E"/><g class="F"><path d="M1743.5 17.5h10v15h-10z"/><path d="M1791.124 22.39h-20.248v-.843h20.248v.843z" class="G"/></g><path d="M1775.938 7.486v14.06h-3.374V7.487h3.374zm7.03 7.874v6.187h-3.374V15.36h3.374z" class="N G"/><path d="M1786.062 32.514V22.39h3.374v10.124h-3.374z" class="G J"/><g class="L"><path d="M1809.154 30.697h23.89m-24.142.75V8.553m.439 10.685H1816v-2.535h6.248v5.523h5.869v2.315h5.301" class="B C"/><path d="M1809.341 14.199H1816v-2.535h6.248v7.763h5.869v-3.284h5.301" class="C g"/><path d="M1868.911 13.903h-5.879v6.72h5.88v2.239h5.318v-4.2h-5.319v-4.759z" class="N"/><path d="M1856.873 17.543h-6.439v3.92h6.44v2.519h6.158v-8.959h-6.159v2.52z" class="J"/><g class="B C"><path d="M1850.528 30.697h23.889m-24.142.75V8.553"/><path d="M1850.154 17.558h6.658v-2.535h6.248v5.524h5.87v2.315h5.3" class="h"/><path d="M1850.154 21.38h6.658v2.602h6.248V13.903h5.87v4.877h5.3"/></g></g><path d="M1916.049 33.86h-23.904v-1.5h23.904v1.5z" class="G I"/><path d="M1900.511 14.753h-4.78v18.101h4.78v-18.1z" class="K"/><path d="M1900.511 19.925h-4.78v12.93h4.78v-12.93z" class="E"/><path d="M1900.511 24.666h-4.78v8.188h4.78v-8.188z" class="D"/><path d="M1906.488 19.063h-4.781v13.791h4.78V19.063z" class="K"/><path d="M1906.488 22.942h-4.781v9.912h4.78v-9.912z" class="E"/><path d="M1906.488 26.82h-4.781v6.034h4.78V26.82z" class="D"/><path d="M1912.464 9.581h-4.781v23.273h4.78V9.581z" class="K"/><path d="M1912.464 16.908h-4.781v15.946h4.78V16.908z" class="E"/><path d="M1912.464 22.51h-4.781v10.344h4.78V22.511z" class="D"/><g class="G"><path d="M1904.16 24.56V11.61h3.37v8.497h6.297V18.29h2.222v-2h-4.222v1.817h-2.297V9.61h-7.37v12.95h-2.834v-8.267h-7.466v2h5.468v8.267h6.833z" class="i"/><path d="M1892.335 7.858v25.858h-1.5V7.858h1.5z" class="I"/></g><path d="M1933.145 33.787v-5.214h1.138V13.787h1.707l1.707.009v3.453h3.666v-4.953h3.823v6.837l1.618-.003v-2.936l2.846.005v-2.403l2.823-.009v1.392h2.43v-2.884h2.146v21.492h-23.904z" class="R"/><path d="M1957.05 33.86h-23.906v-1.5h23.904v1.5z" class="G I"/><path d="M1941.512 14.753h-4.782v18.101h4.78v-18.1z" class="K"/><path d="M1941.512 19.925h-4.782v12.93h4.78v-12.93z" class="E"/><path d="M1941.512 24.666h-4.782v8.188h4.78v-8.188z" class="D"/><path d="M1947.488 19.063h-4.781v13.791h4.78V19.063z" class="K"/><path d="M1947.488 22.942h-4.781v9.912h4.78v-9.912z" class="E"/><path d="M1947.488 26.82h-4.781v6.034h4.78V26.82z" class="D"/><path d="M1953.464 9.581h-4.781v23.273h4.78V9.581z" class="K"/><path d="M1953.464 16.908h-4.781v15.946h4.78V16.908z" class="E"/><path d="M1953.464 22.51h-4.781v10.344h4.78V22.511z" class="D"/><path d="M1933.335 7.858v25.858h-1.5V7.858h1.5z" class="G I"/><g class="L"><g class="B C"><g class="h"><use xlink:href="#L" class="J"/><path d="M1972.93 23.448v9.05l4.382-12.067-4.383 3.017zm18.904-4.741l-2.57-2.424 2.57-4.04 5.141 3.77.257 1.347-5.398 1.347z" class="N"/></g><path d="M1973.328 32.323h23.904m-24.464.607V7.07"/><use xlink:href="#M"/></g><path d="M2014.54 22.718v8.959h23.236V19.639h-5.32v1.68l-5.319.28-6.998.84h-2.8l-2.8.28z" class="R"/><path d="M2032.457 14.88h-5.88v6.719h5.88v2.24h5.319v-4.2h-5.32v-4.76z" class="N"/><path d="M2020.418 18.52h-6.438v3.919h6.44v2.52h6.158v-8.96h-6.159v2.52z" class="J"/><g class="B C"><path d="M2014.073 31.674h23.889m-24.141.749V9.53"/><path d="M2013.7 18.535h6.658V16h6.247v5.523h5.87v2.315h5.3" class="h"/><path d="M2013.7 22.357h6.658v2.601h6.247V14.88h5.87v4.876h5.3"/></g></g><path d="M2054.817 33.787V28.11h3V14.787h4V25.57h2.344v-7.974h3.234v4.19h1.922v-7h4.547v-3h3.953v22h-23z" class="R"/><path d="M2063.41 19.494h-4.78v13.791h4.78V19.494zm5.976 2.586h-4.78v11.205h4.78V22.08zm5.976-8.189h-4.78v19.394h4.78V13.891z" class="M"/><g class="G I"><path d="M2054.835 7.858v25.858h-1.5V7.858h1.5z"/><path d="M2078.55 33.86h-23.906v-1.5h23.904v1.5z"/></g><g class="L"><path d="M2095.698 32.176v-7.19h3.602V11.63h3.412v4.618h2.844v-2.212h3.413v5.445h3.412v-3.862h3.413V9.4h4.17v22.776h-24.266z" class="d"/><path d="M2095.698 32.266v-.091h3.602V19.472h3.412v2.43h2.844v-2.805h3.413v-2.794h3.412V12.4h3.413v10.256h4.17v9.519H2099.3v.09h-3.602z" class="H"/><path d="M2095.838 32.205v-.03h3.574v-2.338h3.385v-9.2h2.822v3.721h3.386v2.997h3.385v-3.81h3.386v2.47h4.138v6.16h-20.502v.03h-3.574z" class="M"/><path d="M2095.321 32.921V9.032m.75 23.139h23.89" class="B C"/><path d="M2137.03 21.226h23.788v11.195h-23.788z" class="R"/><path d="M2136.75 20.417h8.676v-5.629h-8.676v5.629zm15.952.249h7.837V12.27h-7.837v8.396z" class="N"/><path d="M2145.426 29.621h7.836v-8.955h-7.836v8.955z" class="J"/><g class="B C"><path d="M2136.844 20.476h24.068m-24.321 11.944V9.533"/><path d="M2136.75 14.695h8.24v14.864h7.837l-.187-17.57h7.836v8.552"/></g><path d="M2177.902 32.156h23.858m-24.608.75V9.047" class="B C"/><path d="M2177.902 32.11v-5.373h3.542v-7.438h3.355v5.033h2.796v-7.55h3.355v7.55h3.355V18.18h3.355v-5.952h4.1V32.11h-23.858z" class="P"/><path d="M2215.916 31.549h28.168" class="B C"/><path d="M2221.55 17.07h-4.026v3.88h4.024v-3.88z" class="H"/><path d="M2221.55 20.95h-4.026v6.033h4.024V20.95z" class="E"/><path d="M2221.55 26.983h-4.026v4.31h4.024v-4.31z" class="D"/><path d="M2226.78 12.761h-4.023v1.293h4.024V12.76z" class="H"/><path d="M2226.78 14.054h-4.023v2.155h4.024v-2.155z" class="E"/><path d="M2226.78 16.209h-4.023v1.724h4.024v-1.724z" class="D"/><g class="H"><path d="M2222.757 17.07h-1.208v.863h1.208v-.862zm5.231-4.309h-1.208v.862h1.207v-.862zm6.036-4.31h-2.012v.862h2.012v-.862zm4.426 12.068h-1.207v.862h1.207v-.862z"/><path d="M2232.012 8.451h-4.024v1.724h4.024V8.451z"/></g><path d="M2232.012 10.175h-4.024v1.724h4.024v-1.724z" class="E"/><path d="M2232.012 11.899h-4.024v1.724h4.024v-1.724z" class="D"/><path d="M2237.243 11.037h-4.024v6.896h4.024v-6.896z" class="P"/><path d="M2237.243 17.933h-4.024v3.447h4.024v-3.447z" class="D"/><path d="M2237.243 8.451h-4.024v2.586h4.024V8.451zm5.231 12.068h-4.024v2.585h4.024V20.52z" class="H"/><path d="M2242.474 23.105h-4.024v5.171h4.024v-5.171z" class="E"/><path d="M2242.474 28.276h-4.024v3.017h4.024v-3.017z" class="D"/><g class="C"><path d="M2259.139 31.195h23.889" class="B"/><path d="M2258.766 11.897h6.658V9.362h6.247v7.763h5.87V13.84h5.3" class="g"/><path d="M2258.766 18.056h6.658v9.223h6.247v-7.914h5.87v1.755h5.3" stroke="#333"/><path d="M2258.389 31.945V8.055" class="B"/><path d="M2300.024 31.196h23.891m-24.289-14.78l3.836-2.847a5.61 5.61 0 0 1 5.92-.478l.551.286c1.916.991 4.258.581 5.723-1.003 1.648-1.783 4.37-2.052 6.335-.626l1.924 1.396" class="B"/><path d="M2299.626 22.124l3.581-2.07c1.965-1.135 4.464-.669 5.887 1.099l.212.262a4.39 4.39 0 0 0 7.35-.81 4.39 4.39 0 0 1 7.183-1.009l.076.084" stroke="#333"/><path d="M2299.274 31.946V8.054" class="B"/><path d="M2340.305 30.57h23.625m-23.625-14.242l6.399-4.676 6.644 3.387 5.168-5.503 5.168 3.691" class="B"/><path d="M2340.07 21.338l6.733-3.957 6.733 8.505 5.67-11.694 4.243 4.754" stroke="#333"/><path d="M2340.047 31.32V8.68" class="B"/></g><path d="M2384.471 19.806l-4.541 12.692h24.303V17.064l-5.363 1.219-2.541-2.742-.282.61-2.541-3.047-6.493 1.524-1.13 3.655-1.41 1.523z" class="R"/><g class="B C"><g class="h"><use xlink:href="#L" x="407" class="J"/><path d="M2379.93 23.448v9.05l4.382-12.067-4.383 3.017zm18.904-4.741l-2.57-2.424 2.57-4.04 5.141 3.77.257 1.347-5.398 1.347z" class="N"/></g><path d="M2380.328 32.323h23.904m-24.464.607V7.07"/><use xlink:href="#M" x="407"/></g><path d="M2420.328 32.323h23.904" class="B C"/><path d="M2428.695 13.966h-4.781v18.101h4.78v-18.1z" class="K"/><path d="M2428.695 19.138h-4.781v12.93h4.78v-12.93z" class="E"/><path d="M2428.695 23.879h-4.781v8.188h4.78V23.88z" class="D"/><path d="M2434.67 18.276h-4.78v13.791h4.78V18.276z" class="K"/><path d="M2434.67 22.155h-4.78v9.912h4.78v-9.912z" class="E"/><path d="M2434.67 26.034h-4.78v6.033h4.78v-6.033z" class="D"/><path d="M2440.647 8.795h-4.781v23.272h4.78V8.795z" class="K"/><path d="M2440.647 16.121h-4.781v15.946h4.78V16.121z" class="E"/><path d="M2440.647 21.724h-4.781v10.344h4.78V21.724z" class="D"/><g class="C"><path d="M2420.328 21.205l5.567-5.52 6.51 3.89L2438.35 10l5.882 4.023" stroke="#0d4fa4"/><path d="M2419.768 32.93V7.07" class="B"/></g><path d="M2459.955 10.91v21.548h23.904v-20.74l-4.069 2.159h-.254l-4.832 2.158-3.052-2.428-2.034 1.349-3.56-1.08-1.982-.27-4.121-2.697z" class="R"/><path d="M2460.328 32.323h23.904" class="B C"/><path d="M2468.695 13.966h-4.781v18.101h4.78v-18.1z" class="K"/><path d="M2468.695 19.138h-4.781v12.93h4.78v-12.93z" class="E"/><path d="M2468.695 23.879h-4.781v8.188h4.78V23.88z" class="D"/><path d="M2474.67 18.276h-4.78v13.791h4.78V18.276z" class="K"/><path d="M2474.67 22.155h-4.78v9.912h4.78v-9.912z" class="E"/><path d="M2474.67 26.034h-4.78v6.033h4.78v-6.033z" class="D"/><path d="M2480.647 8.795h-4.781v23.272h4.78V8.795z" class="K"/><path d="M2480.647 16.121h-4.781v15.946h4.78V16.121z" class="E"/><path d="M2480.647 21.724h-4.781v10.343h4.78V21.724z" class="D"/><path d="M2459.768 32.93V7.07" class="B C"/><path d="M2500.1 31.784h23.863m-23.926.606V7.61" class="B Z"/><path d="M2500.497 31.529v-5.202l4.046-4.046 2.023 3.324 3.237-.723 1.82-2.89 3.44 4.19 3.034-1.3 1.82-4.046 4.046-2.668v13.36h-23.466z" class="M"/><path d="M2500.596 17.306v9.159l4.029-3.98 1.937 3.172 3.232-.54 1.881-2.353 3.339 3.431 3.231-1.347 1.74-3.77 3.978-2.694v-4.31l-3.978 2.963-4.971 2.694-3.339-1.347-1.881 1.347-3.232.538-1.937-.538-4.029-2.425z" class="H"/><path d="M2500.596 17.306v-7.003l4.029 2.694 1.937.269 3.48 1.077 1.989-1.346 2.983 2.424 4.723-2.155h.248l3.978-2.155v3.232l-4.226 2.963-4.723 2.425-3.339-1.078-1.881 1.347-3.232.27-1.937-.54-4.029-2.424z" class="d"/><path d="M2540.071 31.335h23.858m-24.111.75V9.22m.252 11.93l3.752-3.39a3.76 3.76 0 0 1 5.235.19 3.76 3.76 0 0 0 6.248-1.316l.416-1.149c1.2-3.315 5.567-4.036 7.77-1.283l.19.237" class="B C"/><path d="M2540.32 31.339l5.321-15.753a4.94 4.94 0 0 1 9.22-.373l.627 1.457c1.445 3.354 5.785 4.251 8.441 1.745" class="C g"/></g><path d="M2604.232 33.746h-23.904v-1.5h23.904v1.5z" class="G I"/><path d="M2588.695 14.64h-4.781v18.1h4.78v-18.1z" class="K"/><path d="M2588.695 19.811h-4.781v12.93h4.78V19.81z" class="E"/><path d="M2588.695 24.552h-4.781v8.188h4.78v-8.188z" class="D"/><path d="M2594.67 18.95h-4.78v13.79h4.78V18.95z" class="K"/><path d="M2594.67 22.828h-4.78v9.913h4.78v-9.913z" class="E"/><path d="M2594.67 26.707h-4.78v6.033h4.78v-6.033z" class="D"/><path d="M2600.647 9.468h-4.781V32.74h4.78V9.468z" class="K"/><path d="M2600.647 16.794h-4.781v15.947h4.78V16.794z" class="E"/><path d="M2600.647 22.397h-4.781v10.344h4.78V22.397z" class="D"/><g class="G"><path d="M2595.047 16.325c-.592.796-1.398 1.506-2.568 1.786-1.124.269-2.167-.327-2.89-.817l-1.015-.746-.127-.097-1.024-.732c-.694-.435-1.026-.451-1.21-.378-.222.087-.722.486-1.25 2.108-.558 1.708-1.093 2.88-1.611 3.664-.506.764-1.09 1.3-1.796 1.447-.755.156-1.324-.195-1.629-.47a2.42 2.42 0 0 1-.463-.571l-.01-.018-.004-.007-.001-.003-.001-.002.88-.475.88-.475-.001-.001-.001-.002-.003-.005-.003-.006-.002-.003c.007.011.014.022.022.032.088-.067.246-.216.464-.545.376-.57.846-1.55 1.377-3.18.56-1.717 1.304-2.909 2.417-3.348 1.15-.454 2.245.065 3.008.544.407.255.808.557 1.174.836l.128.098.924.68c.729.494 1.103.574 1.301.527.579-.139 1.02-.485 1.429-1.034.398-.535.711-1.186 1.07-1.932l.086-.18c.369-.765.81-1.659 1.44-2.336.678-.73 1.59-1.226 2.82-1.177.818.032 1.586.353 2.235.74.656.39 1.258.888 1.76 1.36.601.571 1.157 1.187 1.663 1.843l.027.035.007.01.003.004s.001.001-.804.595l-.804.594-.004-.005-.017-.023-.377-.467c-.262-.31-.632-.72-1.067-1.13s-.922-.808-1.41-1.098c-.497-.296-.933-.446-1.29-.46a1.52 1.52 0 0 0-1.278.54c-.392.422-.715 1.039-1.103 1.844l-.098.205c-.34.708-.735 1.533-1.254 2.231z" class="i"/><path d="M2580.518 7.744v25.858h-1.5V7.744h1.5z" class="I"/></g><g class="L"><path d="M2620.698 26.576V12.109h3.602v2.884h3.412v1.31h2.844v-2.805h3.413v3.925h3.412V14.64h3.413v-2.061h4.17v13.998h-24.266z" class="d"/><path d="M2620.698 32.175V18.828h3.602v2.884h3.412v1.31h2.844v-3.925h3.413v2.806h3.412v-2.784h3.413v-3.182h4.17v16.238h-24.266z" class="H"/><path d="M2620.838 32.175v-3.33h3.574v-4.608h3.385v3.118h2.822v-4.677h3.386v4.677h3.385v-3.81h3.386v-3.688h4.138v12.318h-24.076z" class="M"/><path d="M2620.321 32.921V9.032m.75 23.139h23.89" class="B C"/><path d="M2661.071 31.179h23.858m-24.608.75V8.071" class="B C"/><path d="M2661.07 19.557v-4.785c0-1.882 2.28-2.82 3.605-1.485.33.333.762.546 1.227.606l1.035.134c.15.019.298.05.444.091l2.057.59a1.7 1.7 0 0 0 1.943-.783 1.7 1.7 0 0 1 2.887-.098l.49.728a2.25 2.25 0 0 0 2.743.817l3.042-1.286c.047-.02.098-.03.15-.03.112 0 .217-.049.29-.134l.476-.554c1.193-1.39 3.47-.545 3.47 1.286v2.099l-4.314 2.804-4.823 2.294-3.409-1.02-1.921 1.275-3.3.255-1.978-.51-4.113-2.294z" class="d"/><path d="M2661.07 21.344V29.9l4.114-3.767 1.978 3.002 3.3-.51 1.921-2.227 3.41 3.247 3.299-1.275 1.776-3.568 4.061-2.55v-3.469c0-1.99-2.451-2.936-3.788-1.46-.18.198-.396.362-.636.482l-3.229 1.622c-.898.451-1.98.316-2.74-.342l-.237-.206a2.21 2.21 0 0 0-3.298.465 2.21 2.21 0 0 1-1.515.979l-1.714.265a3 3 0 0 1-1.207-.06l-.823-.212c-.366-.094-.7-.282-.972-.544-1.386-1.338-3.7-.356-3.7 1.57z" class="H"/><path d="M2661.07 31.134v-3.749a3 3 0 0 1 .617-1.821l1.377-1.802c.951-1.245 2.89-1.01 3.515.427.387.887 1.34 1.384 2.288 1.193l.665-.134a1.94 1.94 0 0 0 1.401-1.139c.615-1.435 2.587-1.593 3.423-.275l.469.74a2.4 2.4 0 0 0 2.893.954l.257-.1a2.74 2.74 0 0 0 1.464-1.33l1.247-2.496a2.24 2.24 0 0 1 .321-.478c1.364-1.551 3.922-.587 3.922 1.479v8.53h-23.858z" class="M"/></g><path d="M2725.232 33.746h-23.904v-1.5h23.904v1.5z" class="G I"/><path d="M2709.694 18.95h-4.78v13.79h4.78V18.95zm5.976 2.585h-4.78v11.206h4.78V21.535zm5.977-8.189h-4.781V32.74h4.78V13.346z" class="K"/><g class="G"><path d="M2717.196 20.784c-.514.657-1.264 1.142-2.365 1.369-.984.203-1.95-.107-2.709-.406l-.863-.361-1.292-.495c-.626-.18-1.047-.165-1.399.027-.38.207-.899.74-1.418 2.11-1.18 3.114-2.771 4.372-4.384 4.548-.627.064-1.261-.03-1.842-.274-.259-.108-.505-.242-.735-.402l-.017-.012-.006-.005-.003-.002-.002-.001.607-.795.606-.796h-.001l-.002-.002-.003-.002-.003-.002.006.004.057.036c.056.035.146.083.26.13a1.77 1.77 0 0 0 .86.135c.555-.06 1.686-.508 2.732-3.268.593-1.567 1.344-2.62 2.33-3.158 1.012-.553 2.049-.441 2.91-.193.554.16 1.167.422 1.697.65l.638.267c.724.285 1.207.383 1.573.308.687-.142 1.002-.398 1.194-.643.229-.292.352-.645.541-1.184l.012-.032c.166-.475.412-1.175.972-1.702.62-.583 1.465-.829 2.55-.792 1.554.052 3.037 1.035 4.017 1.832a15.34 15.34 0 0 1 1.708 1.628l.027.031.008.01.003.002v.001c.001 0 .002.001-.758.652l-.759.65-.003-.003-.018-.02-.382-.408a13.53 13.53 0 0 0-1.086-.99c-.938-.762-1.975-1.358-2.825-1.386-.748-.026-1.002.147-1.111.25-.162.151-.276.393-.462.925l-.037.104c-.159.458-.383 1.104-.823 1.665z" class="i"/><path d="M2701.518 7.744v25.858h-1.5V7.744h1.5z" class="I"/></g><path d="M2741.47 13.012v19.14h24.262V13.73s-2.564 2.75-4.13 1.917c-.79-.421-.578-3.508-1.367-3.932-1.849-.993-1.768 6.26-3.794 5.849-1.469-.298-1.993-3.99-3.486-3.834-.94.098-.584 2.92-1.754 3.351-1.175.434-1.46.97-3.165-.52s-2.58-2.855-3.722 0-2.843-3.55-2.843-3.55z" class="R"/><path d="M2750.593 19.38h-4.78v13.792h4.78V19.38zm5.977 2.586h-4.782v11.206h4.781V21.966zm5.975-8.188h-4.78v19.394h4.78V13.778z" class="M"/><g class="G I"><path d="M2742.018 7.744v25.858h-1.5V7.744h1.5z"/><path d="M2765.732 33.746h-23.904v-1.5h23.904v1.5z"/></g><g class="L"><path d="M2782.037 31.559V8.689" class="B C"/><path d="M2802.212 15.323c.998-1.81 3.75-1.1 3.75.966v14.474h-23.464l3.267-14.876c.274-1.247 1.942-1.5 2.573-.39.1.175.236.327.4.444l1.161.83a1.67 1.67 0 0 0 2.608-1.017c.364-1.747 2.846-1.783 3.261-.047l.377 1.576c.364 1.521 2.255 2.055 3.36.948l2.265-2.268c.133-.132.246-.283.336-.447l.107-.193z" class="d"/><path d="M2801.969 30.763h.215l-1.227-11.185c-.283-2.584-3.495-3.61-5.223-1.667l-1.368 1.538a3 3 0 0 1-.775.623l-1.493.836c-.242.136-.501.237-.771.301l-2.343.558c-.323.077-.662.052-.97-.07-.817-.324-1.744.065-2.084.876l-3.433 8.19h19.472z" class="H"/><path d="M2805.963 30.763v-3.496a3 3 0 0 0-.954-2.194l-1.062-.99a2.01 2.01 0 0 0-2.735-.006 2.01 2.01 0 0 1-2.677.045l-.82-.708a2.49 2.49 0 0 0-1.627-.605h-.236c-.862 0-1.64-.518-1.971-1.314-.84-2.01-3.797-1.623-4.09.536l-.44 3.25a3 3 0 0 1-.473 1.255l-2.802 4.227h19.887z" class="M"/><path d="M2782.1 31h23.863" class="B C"/><path d="M2822.071 31.179h23.858m-24.608.75V8.071" class="B C"/><path d="M2822.07 31.134v-7.076a3 3 0 0 1 .282-1.268l1.168-2.504c.85-1.821 3.53-1.507 3.936.461a2.09 2.09 0 0 0 3.525 1.05l.181-.182a1.94 1.94 0 0 0 .502-.88c.494-1.892 3.158-1.952 3.737-.085l.218.703c.523 1.686 2.74 2.061 3.789.643l.311-.42a2.42 2.42 0 0 0 .367-.728l1.651-5.37a2.15 2.15 0 0 1 .218-.484c1.125-1.852 3.974-1.054 3.974 1.113v15.027h-23.858z" class="P"/><g class="C"><path stroke="#8eb900" d="M2883.756 13.678l-18.946 7.718"/><path d="M2865.423 29.144l18.244-4.912" class="j"/><path stroke="#ff000a" d="M2864.853 10.203l18.945 9.121"/><path d="M2865.277 8.773v22.454m18.244-22.454v22.454" class="B"/></g></g><path d="M2904.905 15.236h-3.39V30.15h3.39V15.236zm5.508-5.8h-3.39V30.15h3.39V9.436zm5.347 9.639h-3.39V30.09h3.39V19.075zm5.931-6.779h-3.39V30.09h3.39V12.296zm5.085 11.016h-3.39v6.779h3.39v-6.78z" class="D"/><path d="M2928.5 30.565h-29V29.4h29v1.165z" class="G I"/><g class="L"><g class="H"><path d="M2946.05 17.845h-4.026v13.791h4.024v-13.79z"/><path d="M2949.671 17.845h-4.024v.862h4.024v-.862zm4.829-5.171h-4.024v.861h4.024v-.861zm4.829-4.31h-4.024v.862h4.024v-.862zm5.231 12.067h-4.024v.862h4.024v-.862z"/><path d="M2951.28 12.674h-4.023v6.033h4.024v-6.034zm5.232-4.31h-4.024v5.171h4.024V8.364z"/></g><path d="M2961.743 8.364h-4.023v12.929h4.024V8.363z" class="P"/><path d="M2966.975 20.431h-4.025v10.774h4.024V20.431z" class="H"/><path d="M2940.416 31.461h28.168" class="B C"/><path d="M3002.839 12.7V8.39h-5.629v4.31h5.628zm4.824 5.428v-4.31h-10.453v4.31h10.452zm1.206 6.034v-4.31h-11.659v4.31h11.658zm-2.814 6.033v-4.31h-8.845v4.31h8.844z" class="e"/><path d="M2997.06 8.08l-.088 23.84" class="B C"/><path d="M2992.387 12.7V8.39h-11.256v4.31h11.256zm-4.02 5.428v-4.31h-7.236v4.31h7.236zm2.413 6.034v-4.31h-9.65v4.31h9.648zm-4.02 6.033v-4.31h-5.63v4.31h5.628z" class="D"/><path d="M2981.232 8.08l.063 23.84" class="B C"/></g><path d="M3023 32v-1h25v1z" class="F"/><path fill="#dadada" d="M3026 15V9h6v6z"/><path d="M3026 31v-8.364h6V31z" class="T"/><path fill="#bbb" d="M3026 22.636v-8.364h6v8.364z"/><g class="F"><path d="M3028 31V10h2v21z"/><path d="M3026 12v-1.05h6V12z"/></g><path d="M3038 31v-8.4h6V31z" class="T"/><path fill="#bbb" d="M3038 22.6v-8.4h6v8.4z"/><path fill="#dadada" d="M3038 15V8h6v7z"/><g class="F"><path d="M3040 31V19.45h2V31zm-2-19v-1.05h6V12z"/><path d="M3024.5 15v-1l.667.5-.667.5zm12 7v-1l.667.5-.667.5z" class="j"/></g><path d="M3067.908 32.592a3.5 3.5 0 0 1-3.5-3.5v-18a3.5 3.5 0 1 1 7 0v18a3.5 3.5 0 0 1-3.5 3.5z" class="H"/><path d="M3067.908 32.592a3.5 3.5 0 0 1-3.5-3.5v-11a3.5 3.5 0 1 1 7 0v11a3.5 3.5 0 0 1-3.5 3.5z" class="D"/><path d="M3081.092 32.592a3.5 3.5 0 0 1-3.5-3.5v-18a3.5 3.5 0 1 1 7 0v18a3.5 3.5 0 0 1-3.5 3.5z" class="H"/><path d="M3081.092 32.592a3.5 3.5 0 0 1-3.5-3.5v-1a3.5 3.5 0 1 1 7 0v1a3.5 3.5 0 0 1-3.5 3.5z" class="D"/><g class="L"><path d="M3107.277 23.005h-4.024v9.05h4.024v-9.05z" class="E"/><path d="M3107.24 14.709h-3.962v8.484h3.962v-8.485zm5.093-3.637h-3.963v4.243h3.962v-4.243z" class="H"/><g class="E"><path d="M3112.509 23.005h-4.024v2.155h4.024v-2.155z"/><path d="M3108.485 23.005h-1.208v.862h1.208v-.862z"/></g><path d="M3108.371 14.709h-1.131v.606h1.131v-.606zm5.093-3.637h-1.131v.606h1.131v-.606zm5.659-2.424h-1.132v.606h1.132v-.606zm5.093 6.667h-1.132v.606h1.132v-.606z" class="H"/><g class="E"><path d="M3113.716 24.298h-1.207v.862h1.207v-.862zm5.231-3.448h-1.207v.862h1.207v-.862zm5.231 5.172h-1.207v.862h1.207v-.862z"/><path d="M3117.74 20.85h-4.024v4.31h4.024v-4.31zm5.231 6.01h-4.024v-6.033h4.024v6.034z"/></g><path d="M3117.991 8.648h-4.527v3.03h4.527v-3.03zm5.093 0h-3.96v7.273h3.96V8.648z" class="H"/><path d="M3128.202 26.022h-4.024v6.033h4.024v-6.033z" class="E"/><path d="M3128.177 15.315h-3.961v10.909h3.961v-10.91z" class="H"/><path d="M3101.644 31.88h28.168" class="B C"/><path d="M3147.952 20.286h-4.024V31.49h4.024V20.286z" class="e"/><path d="M3150.366 15.976h-4.024v15.515h4.024V15.976z" class="D"/><path d="M3156.805 15.114h-4.025v16.377h4.024V15.114z" class="e"/><path d="M3159.22 9.942h-4.025v21.55h4.024V9.941z" class="D"/><path d="M3165.658 20.286h-4.024V31.49h4.024V20.286z" class="e"/><path d="M3168.072 17.7h-4.024v13.791h4.024V17.7z" class="D"/><path d="M3141.916 31.316h28.168" class="B C"/><g transform="translate(3176)"><g clip-path="url(#Q)" class="X"><path d="M20 8.96c6.088 0 11.04 4.953 11.04 11.04S26.088 31.04 20 31.04 8.96 26.087 8.96 20 13.912 8.96 20 8.96zM28.64 20a8.58 8.58 0 0 0-1.752-5.191l-12.08 12.079A8.58 8.58 0 0 0 20 28.64c4.764 0 8.64-3.876 8.64-8.64zm-15.528 5.191l12.08-12.079A8.58 8.58 0 0 0 20 11.36c-4.764 0-8.64 3.876-8.64 8.64a8.58 8.58 0 0 0 1.752 5.191z"/></g><defs><clipPath id="Q"><path transform="matrix(-1 0 0 1 32 8)" d="M0 0h24v24H0z" class="X"/></clipPath></defs></g></g><g class="P"><path d="M3221.916 32.067v.862h28.168v-.862h-28.168z"/><path d="M3228.354 19.569v12.93h.805v-12.93h-.805z"/></g><path d="M3228.757 19.569c1.11 0 2.012-.965 2.012-2.155s-.901-2.155-2.012-2.155-2.012.965-2.012 2.155.9 2.155 2.012 2.155z" class="F"/><path d="M3235.598 10.95v21.548h.804V10.95h-.805z" class="P"/><path d="M3236 11.38c1.111 0 2.012-.964 2.012-2.154s-.9-2.156-2.012-2.156-2.012.964-2.012 2.155.9 2.154 2.012 2.154z" class="F"/><path d="M3242.84 23.879v8.62h.806v-8.62h-.805z" class="P"/><path d="M3243.243 23.879c1.111 0 2.012-.965 2.012-2.155s-.9-2.155-2.012-2.155-2.012.965-2.012 2.155.901 2.155 2.012 2.155z" class="F"/><g class="L"><g class="B C"><path d="M3264.328 32.323h23.904m-24.464.607V7.07"/><use xlink:href="#M" x="1291" y="-0.431"/></g><path d="M3264.328 32.498l6.29-17.755 6.794-1.639 5.285 6.556 5.535-1.366" class="C g"/><path d="M3302.666 31.549h28.168" class="B C"/><g class="H"><path d="M3308.3 17.502h-4.026v13.791h4.026V17.502z"/><path d="M3309.91 17.502h-2.415v.862h2.414v-.862zm16.095 3.017h-2.414v.862h2.414v-.862zm-5.231-12.068h-2.414v.862h2.414v-.862zm-6.036 4.31h-2.415v.862h2.415v-.862z"/></g><path d="M3313.53 12.761h-4.023v5.603h4.024V12.76zm5.232-4.31h-4.024v5.172h4.024V8.45z" class="N"/><path d="M3329.225 20.519h-4.025v10.774h4.024V20.519z" class="H"/><path d="M3323.993 8.451h-4.023v12.93h4.024V8.45z" class="J"/><path d="M3368.67 15.26h-5.634v15.514h5.634V15.26z" class="D"/><path d="M3367.06 15.26h-4.024v2.585h4.024V15.26z" class="J"/><path d="M3359.817 9.226h-5.634v21.548h5.634V9.226z" class="D"/><path d="M3358.207 9.226h-4.024v6.464h4.024V9.226z" class="N"/><path d="M3350.964 15.152h-5.634v15.515h5.634V15.152z" class="D"/><path d="M3349.354 15.152h-4.024v3.447h4.024v-3.447z" class="N"/><path d="M3342.916 30.6h28.168" class="B C"/></g><path d="M3385 32v-1h25v1z" class="F"/><path fill="#7eafe8" d="M3388 31V18h6v13z"/><g class="F"><path d="M3390 31V10h2v21z"/><path d="M3388 12.133v-1.045h6v1.045z"/></g><path fill="#7eafe8" d="M3400 31V9h6v22z"/><g class="F"><path d="M3402 31V19.45h2V31zm-2-19v-1.05h6V12zm25 20v-1h25v1z"/><path d="M3429 31V16h5v15z"/></g><path d="M3429 15V9h4v6z" class="N"/><g class="F"><path d="M3433 15V9h1v6z"/><path d="M3427 16v-1h9v1zm14 16V21h5v11z"/></g><path d="M3441 21v-5h3v5z" class="J"/><path d="M3439 16v-1h9v1z" class="F"/><g class="L"><path d="M3464.869 30.697h23.889m-24.142.75V8.553" class="B C"/><path d="M3465.055 15.319h6.658v4.743h6.248v-4.554h5.87v-4.964h5.3" class="C m"/><path d="M3465.055 25.957h6.658v-4.215h6.248v2.164h5.87v1.755h5.3" class="C Y"/><path d="M3465.055 22.038h6.658v-3.655h6.248v-5.115h5.87" class="C g"/><path d="M3508.147 19.354h-3.22V31.42h3.22V19.354z" class="e"/><path d="M3514.586 10.734h-3.22v20.687h3.22V10.734z" class="M"/><path d="M3511.366 17.63h-3.219v13.79h3.22V17.63z" class="D"/><path d="M3529.072 19.785h-3.22V30.99h3.22V19.785z" class="M"/><path d="M3522.634 11.165h-3.22V30.99h3.22V11.165z" class="e"/><path d="M3525.853 8.58h-3.22v22.41h3.22V8.58z" class="D"/><path d="M3502.916 30.815h28.168" class="B C"/><path d="M3544.165 9.643h6.425v20.079h-6.425zm9.623 0h6.425v20.079h-6.425zm9.623 0h6.425v20.079h-6.425z" stroke="#ddd" class="C"/><path d="M3542.849 30.357h28.302" class="B C"/><path d="M3545.679 15.24h3.396v15.232h-3.396z" class="E"/><path d="M3550.207 25.395h3.962v3.173h-3.962z" class="J"/><path d="M3559.83 25.395h3.962v3.173h-3.962z" class="N"/><path d="M3555.302 23.491h3.396v6.982h-3.396zm9.623-5.078h3.396v12.059h-3.396z" class="E"/></g><path d="M3584.874 7.485h24.261v8.963h-24.26V7.485z" class="P"/><g class="F G"><path d="M3608.009 8.612H3586v6.71h22.008v-6.71zm-23.135-1.127v8.963h24.262V7.485h-24.263z"/><path d="M3608 16.492h-22.008v6.56H3608v-6.56zm-23.135-1.127v8.814h24.262v-8.814h-24.262z"/><path d="M3608 23.996h-22.008v7.392H3608v-7.392zm1.127-1.127v9.646h-24.262v-9.646h24.262z"/><path d="M3592.644 31.706l.028-16.342h1.127l-.028 16.343h-1.127zm7.486.437V15.748h1.126v16.395h-1.126z"/></g><g class="L"><g class="D"><path d="M3630.224 13.034V8.747h-8.032v4.287h8.032z"/><path d="M3630.224 15.177V10.89h-.502v4.287h.502zm5.521 6.966v-4.286h-.502v4.286h.502zm-8.533 5.895V23.75h-.502v4.287h.502z"/><path d="M3635.745 18.928v-4.287h-6.024v4.287h6.024zm0 5.895v-4.287h-9.035v4.287h9.035zm-8.533 5.894V26.43h-5.02v4.287h5.02z"/></g><path d="M3622.396 6.604v26.792" class="B Z"/><g class="H"><path d="M3647.29 13.034V8.747h-8.031v4.287h8.03z"/><path d="M3647.29 16.25v-4.288h-.502v4.287h.502zm4.518 5.893v-4.286h-.502v4.286h.502zm-2.51 5.359v-4.287h-.502v4.287h.502z"/><path d="M3651.808 18.928v-4.287h-5.02v4.287h5.02zm0 5.895v-4.287h-3.012v4.287h3.012zm-2.51 5.894V26.43h-10.04v4.287h10.04z"/></g><path d="M3639.463 6.604v26.792" class="B Z"/><path d="M3669 32V8h4v24z" class="a"/><path d="M3669 32V8h4v24z" class="N"/><path d="M3667 17.225h8" class="j p"/><path d="M3681 32V8h4v24z" class="a"/><path d="M3681 32V14.4h4V32z" class="J"/><g class="j"><path d="M3679 10.558h8" class="p"/><path stroke-width="1.563" d="M3665 31.219h24"/></g><path d="M3708.77 18.148h-3.46v13.185h3.459V18.148z" class="U Y c"/><path d="M3714.284 11.811h-4.024v6.465h4.024v-6.465z" class="N"/><path d="M3710.26 17.845h-1.61v.431h1.61v-.43z" class="M"/><path d="M3719.515 8.364h-4.024v3.878h4.024V8.364z" class="N"/><path d="M3715.491 11.811h-1.207v.431h1.207v-.43z" class="M"/><path d="M3724.746 8.364h-4.024v2.154h4.024V8.364z" class="J"/><path d="M3725.954 10.088h-1.208v.43h1.208v-.43zm-5.231-1.724h-1.208v.43h1.207v-.43z" class="M"/><path d="M3729.978 10.088h-4.024v21.548h4.024V10.087z" class="D"/><path d="M3713.196 27.63h-2.653v3.703h2.653V27.63z" class="Y c"/><path d="M3714.284 25.172h-3.22v6.464h3.22v-6.464z" class="D"/><path d="M3718.427 24.936h-2.653v6.29h2.653v-6.29z" class="Y c"/><path d="M3719.515 23.017h-3.219v8.62h3.22v-8.62z" class="D"/><path d="M3723.659 21.596h-2.654v9.737h2.654v-9.737z" class="Y c"/><path d="M3724.746 22.155h-3.219v9.481h3.22v-9.481z" class="D"/><path d="M3702.916 31.461h28.168m14.244.862h23.904" class="B C"/><path d="M3753.694 18.276h-4.78v13.791h4.78V18.276zm5.976 2.586h-4.78v11.205h4.78V20.862zm5.977-8.189h-4.781v19.394h4.78V12.673z" class="K"/><g class="C"><path d="M3744.93 26.357l6.542-5.193 6.794 2.187 5.535-8.2 5.033 3.827" stroke="#0d4fa4"/><path d="M3744.768 32.93V7.07" class="B"/></g></g><path d="M3795.288 12.227h2.806v19.394h-2.806z" class="M"/><path d="M3798.094 17.682h2.806v13.939h-2.806z" class="H"/><path d="M3802.584 20.712h2.806v10.909h-2.806z" class="M"/><path d="M3805.39 15.864h2.806v15.758h-2.806z" class="H"/><path d="M3787.991 22.53h2.806v9.091h-2.806z" class="M"/><path d="M3790.797 24.955h2.806v6.667h-2.806z" class="H"/><path d="M3786.746 31.227V6.773h-2v25.454h.439v1h24.695v-2h-23.134z" class="G I"/><g class="L"><path d="M3826.828 10.95v21.548h23.904v-20.74l-4.068 2.16h-.255l-4.831 2.157-3.052-2.428-2.035 1.35-3.56-1.08-1.981-.27-4.122-2.697z" class="R"/><path d="M3835.593 18.707h-4.78v13.791h4.78v-13.79zm5.977 2.586h-4.782v11.205h4.781V21.293zm5.975-8.189h-4.78v19.394h4.78V13.104z" class="M"/><path d="M3826.268 32.93V7.07m.56 25.253h23.904" class="B C"/><g class="C"><path d="M3867.83 30.913l4.243-15.621 1.945.625 3.495 2.5 1.996-3.125 2.995 5.624 4.992-5 3.993-4.998m-3.993 19.995h-15.423" class="m"/><path d="M3891.092 30.913h-19.416a2.52 2.52 0 0 1-2.358-3.411l1.793-4.743a1.57 1.57 0 0 1 2.049-.905 1.57 1.57 0 0 0 .943.068l2.356-.56c.27-.065.53-.166.771-.302l1.492-.835a3 3 0 0 0 .776-.624l4.447-5c.804-.904 2.154-1.071 3.153-.389" stroke="#bdbdbd"/><path d="M3891.49 26.114l-2.016-1.88a2.01 2.01 0 0 0-2.734-.006 2.01 2.01 0 0 1-2.677.046l-.676-.584a3 3 0 0 0-1.96-.73h-.6a2.4 2.4 0 0 1-1.537-.556c-1.354-1.128-3.42-.463-3.862 1.242l-.514 1.982c-.083.322-.22.628-.403.905l-2.014 3.038a3 3 0 0 1-2.5 1.342h-1.97" class="Y"/><path d="M3867.631 30.683h23.858m-24.111.75V8.568" class="B"/></g></g><path d="M3907.313 12.163v20.254h24.919V15.833s.1-3.09-1.67-3.616c-3.14-.93-2.345 7.71-4.444 7.743-2.297.037-1.349-2.545-3.43-2.98-1.508-.314-.57-2.11-2.102-1.945-.966.103-1.988 1.77-3.348 1.946-2.154.278-2.448-4.505-3.93-4.764-.8-.14-2.57 3.553-3.36 3.36-1.9-.468-2.635-3.414-2.635-3.414z" class="R"/><path d="M3932.232 33.746h-23.904v-1.5h23.904v1.5z" class="G I"/><path d="M3916.695 14.64h-4.781v18.1h4.78v-18.1z" class="K"/><path d="M3916.695 19.811h-4.781v12.93h4.78V19.81z" class="E"/><path d="M3916.695 24.552h-4.781v8.188h4.78v-8.188z" class="D"/><path d="M3922.67 18.95h-4.78v13.79h4.78V18.95z" class="K"/><path d="M3922.67 22.828h-4.78v9.913h4.78v-9.913z" class="E"/><path d="M3922.67 26.707h-4.78v6.033h4.78v-6.033z" class="D"/><path d="M3928.647 9.468h-4.781V32.74h4.78V9.468z" class="K"/><path d="M3928.647 16.794h-4.781v15.947h4.78V16.794z" class="E"/><path d="M3928.647 22.397h-4.781V32.74h4.78V22.397z" class="D"/><path d="M3908.518 7.744v25.858h-1.5V7.744h1.5z" class="G I"/><g class="L"><path d="M3948.037 32.39V7.61" class="B Z"/><path d="M3971.963 9.856v21.672h-23.466l4.046-16.93 1.945.676 3.495 2.71 1.997-3.387 2.996 6.095 4.993-5.418 3.994-5.418z" class="d"/><path d="M3967.969 31.529h.215l-1.963-19.395-6.19 7.543-2.297 1.394-3.246.837-1.945-.837-4.046 10.457h19.472z" class="H"/><path d="M3971.963 31.529v-5.202l-3.381-3.418-2.688 2.696-2.88-2.696h-2.585l-3.58-3.232-1.591 6.65-3.182 5.202h19.887z" class="M"/><path d="M3948.1 31.784h23.863" class="B Z"/><path d="M3991.55 17.845h-4.026v13.791h4.024V17.845z" class="E"/><g class="H"><path d="M3996.78 8.364h-4.023v10.343h4.024V8.364z"/><path d="M3992.757 17.845h-1.207v.862h1.207v-.862zm5.231-9.481h-1.207v.861h1.207v-.861zm5.232 0h-1.208v.861h1.207v-.861zm5.23 14.653h-1.207v.862h1.207v-.862z"/></g><path d="M4002.012 8.364h-4.024v23.272h4.024V8.364z" class="E"/><path d="M4007.244 8.364h-4.024v15.515h4.024V8.364z" class="H"/><path d="M4012.475 23.017h-4.025v8.62h4.024v-8.62z" class="E"/><path d="M3985.916 31.03h28.168" class="B Z"/></g><g class="G I"><path d="M4051.52 33.026h-22.983v-1.5h22.983v1.5z"/><path d="M4028.75 8v24.998h-1.5V8h1.5z"/></g><path d="M4035.69 14.77h-4.807v13.46h4.807V14.77z" class="F"/><path d="M4031.844 11.882v.962h.96v1.923h.961v-1.923h.964v-.962h-2.885z" class="G P"/><path d="M4030.883 20.537v-.961h4.808v.961h-4.808z" class="n"/><path d="M4033.765 28.234h-.961v2.073h.961v-2.073zm-1.92 2.075V31h2.884v-.691h-2.884z" class="G P"/><path d="M4042.423 15.734h-4.807V26.31h4.807V15.734z" class="F"/><path d="M4037.616 23.42v-.96h4.807v.96h-4.807z" class="n"/><path d="M4040.5 26.306h-.96v2.884h.96v-2.884zm-1.92 2.886v.962h2.884v-.962h-2.884zm0-18.27v.962h.96v3.846h.96v-3.846h.964v-.962h-2.884z" class="G P"/><path d="M4049.151 12.848h-4.807V27.27h4.807V12.848z" class="F"/><path d="M4044.344 16.696v-.962h4.807v.962h-4.807z" class="n"/><path d="M4047.223 27.265h-.961v2.884h.961v-2.884zm-1.92 2.886v.962h2.884v-.962h-2.885zm0-21.153v.962h.96v2.884h.96V9.96h.964v-.962h-2.884z" class="G P"/><g class="L"><path d="M4068.816 19.627l8.947-.186-3.293-5.343-5.654 5.53zm15.099 0l7.269-.186-4.97-7.021-2.3 7.207z" class="N"/><path d="M4083.915 19.69l-6.151.186 3.293 8.698 2.858-8.885z" class="J"/><g class="B C"><path d="M4068.071 19.499h23.858m-24.111 11.934V8.568"/><path d="M4068.07 20.124l6.463-6.4 6.71 14.85 5.219-16.092 5.219 7.083"/></g><path d="M4108.53 19.44h8.676v-5.628h-8.676v5.628zm15.952.249h7.837v-8.396h-7.837v8.396z" class="N"/><path d="M4117.206 28.645h7.836v-8.956h-7.836v8.956z" class="J"/><g class="B C"><path d="M4108.623 19.499h24.069m-24.321 11.945V8.557"/><path d="M4108.53 13.718h8.24v14.864h7.837l-.187-17.569h7.836v8.551"/></g><path d="M4149.207 20.249h23.773v11.187h-23.773z" class="R"/><path d="M4149.766 19.627l8.95-.186-3.294-5.345-5.656 5.531zm15.103 0l7.272-.186-4.972-7.023-2.3 7.21z" class="N"/><path d="M4164.869 19.69l-6.153.186 3.294 8.701 2.859-8.888z" class="J"/><g class="B C"><path d="M4149.02 19.499h23.866m-24.119 11.937V8.564"/><path d="M4149.02 20.124l6.464-6.401 6.712 14.854 5.221-16.097 5.22 7.085"/></g><path d="M4189.328 32.323h23.904m-24.464.607V7.07" class="B Z"/><path d="M4189.328 32.067v-8.39l4.121-6.525 2.061 5.36 3.297-1.165 1.855-4.66 3.503 6.758 3.091-2.098 1.855-6.525 4.121-4.304v21.55h-23.904z" class="P"/></g><path d="M4254.05 33.86h-23.906v-1.5h23.904v1.5z" class="G I"/><path d="M4238.511 19.063h-4.78v13.791h4.78V19.063zm5.976 2.586h-4.78v11.205h4.78V21.65zm5.976-8.189h-4.78v19.394h4.78V13.46z" class="K"/><g class="G"><path d="M4242.001 15.53v11.112h3.437V16.365h6.349v4.166h2.262v2h-4.262v-4.166h-2.35v10.277h-7.436V17.531h-2.893v9.445h-7.524v-2h5.524V15.53h6.893z" class="i"/><path d="M4230.335 7.858v25.858h-1.5V7.858h1.5z" class="I"/></g></svg>