<svg xmlns="http://www.w3.org/2000/svg" xmlns:xlink="http://www.w3.org/1999/xlink" width="540" height="20" xmlns:v="https://vecta.io/nano"><style><![CDATA[.B{fill:#fff}.C{stroke-linejoin:round}.D{stroke:#444}.E{stroke-linecap:round}.F{fill:#74b1e9}.G{stroke:#596e8d}.H{stroke:#002050}.I{fill:#212121}.J{fill-rule:evenodd}]]></style><path d="M8.4 3.6a4.8 4.8 0 0 0-4.8 4.8 4.8 4.8 0 0 0 1.406 3.394A4.8 4.8 0 0 0 8.4 13.2a4.8 4.8 0 0 0 3.394-1.406A4.8 4.8 0 0 0 13.2 8.4a4.8 4.8 0 0 0-4.8-4.8zm-4.525.275a6.4 6.4 0 0 1 9.051 0 6.4 6.4 0 0 1 1.387 6.975 6.4 6.4 0 0 1-.857 1.475l4.31 4.31a.8.8 0 0 1-1.131 1.131l-4.31-4.31A6.4 6.4 0 0 1 8.4 14.8a6.4 6.4 0 0 1-4.525-1.875A6.4 6.4 0 0 1 2 8.4a6.4 6.4 0 0 1 1.875-4.525z" class="I J"/><g fill="none" transform="translate(21 1)"><g clip-path="url(#A)" class="I"><path d="M6.372 7.619l-.752-.752 3.164-3.164 3.164 3.164-.752.752-2.412-2.412-2.412 2.412zm4.824 2.168l.752.752-3.164 3.164-3.164-3.164.752-.752 2.412 2.412 2.412-2.412z"/></g><defs><clipPath id="A"><path d="M0 0H18V18H0z" class="I"/></clipPath><path id="B" d="M5.906 7.875c.466 0 .844-.378.844-.844s-.378-.844-.844-.844-.844.378-.844.844.378.844.844.844z"/></defs></g><path d="M44.167 6.162H43V3h1.167v3.162zM55.833 3H57v3.162h-1.167V3zM44.167 3h11.666v3.162H44.167V3z" class="F"/><path d="M57 5.8H43V17h14V5.8z" class="B C D"/><path d="M63.865 13.971v1.143H61.5v-1.143h2.365zm-1.182-9.828H61.5V3h1.183v1.143zM74.509 3h1.182v2.286H74.51V3zM61.5 13.971V4.143h2.365v9.828H61.5zM62.683 3h11.826v2.286H62.683V3z" class="F"/><path d="M78.5 5.571H64.309V17H78.5V5.571z" class="B C D"/><path d="M96.145 14.597v1.178H98.5v-1.178h-2.355zm2.355-9.42V4h-2.355v1.177H98.5zm0 9.42v-9.42h-2.355v9.42H98.5z" class="F"/><path d="M95.63 15.774H81.5V4h14.13v11.774z" class="B C D"/><path d="M103.886 6.006V4.861H101.5v1.145h2.386zm-1.193 9.849H101.5V17h1.193v-1.145zM114.623 17h1.193v-2.29h-1.193V17zM101.5 6.006v9.849h2.386V6.006H101.5zM102.693 17h11.93v-2.29h-11.93V17z" class="F"/><path d="M104.184 3H118.5v11.452h-14.316V3z" class="B C D"/><path d="M124.167 13.754H123V17h1.167v-3.246zM135.833 17H137v-3.246h-1.167V17zm-11.666 0h11.666v-3.246h-11.666V17z" class="F"/><path d="M137 14.498h-14V3h14v11.498z" class="B C D"/><path d="M156.114 6.062V4.923h2.386v1.14h-2.386zm1.193 9.799h1.193V17h-1.193v-1.14zM145.377 17h-1.193v-2.279h1.193V17zM158.5 6.062v9.799h-2.386V6.062h2.386zM157.307 17h-11.93v-2.279h11.93V17z" class="F"/><path d="M141.5 3h14.316v11.393H141.5V3z" class="B C D"/><g fill="none"><path d="M162 3.5h16v13h-16v-13z" stroke="#74b1e9" stroke-width="2"/><path d="M163 4.5h14v11h-14v-11z" class="B C D"/></g><path d="M183.855 14.597v1.178H181.5v-1.178h2.355zm-2.355-9.42V4h2.355v1.177H181.5zm0 9.42v-9.42h2.355v9.42H181.5z" class="F"/><path d="M184.37 15.774h14.13V4h-14.13v11.774z" class="B C D"/><path d="M216.135 13.971v1.143h2.365v-1.143h-2.365zm1.182-9.828h1.183V3h-1.183v1.143zM205.491 3h-1.181v2.286h1.18V3zM218.5 13.971V4.143h-2.365v9.828h2.365zM217.317 3h-11.826v2.286h11.826V3z" class="F"/><path d="M201.5 5.571h14.191V17H201.5V5.571z" class="B C D"/><g fill="none"><g class="G"><path d="M231.688 8.875h2.813m-2.813 2.25h2.813" class="C E"/><path d="M236.188 4.375h-12.375c-.311 0-.562.252-.562.563v10.125c0 .311.252.563.563.563h12.375c.311 0 .563-.252.563-.562V4.938c0-.311-.252-.562-.562-.562z" class="C"/><path d="M226.823 8.581a.3.3 0 0 1 .514 0l1.544 2.564a.3.3 0 0 1-.257.455h-3.088a.3.3 0 0 1-.257-.455l1.544-2.564z"/></g><g transform="translate(241 1)"><g clip-path="url(#C)" class="C E H"><path d="M5.625 10.688L2.25 7.313l3.375-3.375"/><path d="M15.75 14.063A6.75 6.75 0 0 0 9 7.313H2.25"/></g><defs><clipPath id="C"><path d="M0 0H18V18H0z" class="B"/></clipPath></defs></g><path d="M265.5 7.75l4.5 4.5 4.5-4.5" stroke-width="1.5" class="G"/><g transform="translate(281 1)"><g clip-path="url(#D)" stroke-width="1.5"><path d="M4 14L14 4" stroke="#637794"/><path d="M14 14L4 4" class="G"/></g><defs><clipPath id="D"><path d="M0 0H18V18H0z" class="B"/></clipPath></defs></g><g transform="translate(301 1)"><g clip-path="url(#E)" class="C E H"><path d="M15.638 3.938H3.263"/><g stroke-width="1.25"><path d="M7.763 7.313v4.5m3.375-4.5v4.5"/></g><path d="M14.513 3.938v10.688a.56.56 0 0 1-.562.563h-9a.56.56 0 0 1-.563-.563V3.938m7.875 0V2.813c0-.298-.119-.585-.33-.796s-.497-.329-.795-.329H7.763c-.298 0-.585.119-.795.329a1.13 1.13 0 0 0-.33.796v1.125"/></g><defs><clipPath id="E"><path d="M0 0H18V18H0z" class="B"/></clipPath></defs></g><g transform="translate(321 1)"><g clip-path="url(#F)" class="C E G"><path d="M3.375 14.625V9.563H6.75m9 5.062H2.25"/><path d="M6.75 14.625V6.188h3.938m0 8.437V2.813h3.938v11.813"/></g><defs><clipPath id="F"><path d="M0 0H18V18H0z" class="B"/></clipPath></defs></g><path d="M347.75 14.5l4.5-4.5-4.5-4.5" class="H"/><g transform="translate(361 1)"><g clip-path="url(#G)"><g clip-path="url(#H)" fill="#333"><path d="M10.284 13.686a.58.58 0 0 0-.219-.185.61.61 0 0 0-.258-.057.68.68 0 0 0-.266.053.57.57 0 0 0-.226.179c-.066.084-.119.193-.156.326a1.91 1.91 0 0 0-.06.49 1.95 1.95 0 0 0 .058.483.94.94 0 0 0 .151.326c.064.084.137.146.219.185a.59.59 0 0 0 .258.058c.093 0 .182-.018.266-.055s.16-.096.226-.179a.91.91 0 0 0 .156-.326c.037-.134.058-.298.06-.492a1.92 1.92 0 0 0-.058-.481.97.97 0 0 0-.151-.326zm4.923-1.927V4.856c0-.211-.025-.368-.152-.494l-3.21-3.21A.52.52 0 0 0 11.479 1H3.472c-.327 0-.679.253-.679.807v9.951h12.414zm-6.069-1.655c0 .152-.123.276-.276.276s-.276-.124-.276-.276v-.828c0-.152.123-.276.276-.276s.276.124.276.276v.828zm2.207-8.168c0-.126.152-.19.242-.1l2.785 2.785c.089.089.026.242-.1.242h-2.927V1.935zm-.276 5.685V6.517c0-.152-.124-.276-.276-.276s-.276-.124-.276-.276.123-.276.276-.276a.83.83 0 0 1 .828.828V7.62a.55.55 0 0 0 .552.552c.152 0 .276.124.276.276s-.123.276-.276.276a.55.55 0 0 0-.552.552v1.103a.83.83 0 0 1-.828.828c-.153 0-.276-.124-.276-.276s.123-.276.276-.276.276-.124.276-.276V9.276c0-.331.149-.625.381-.828-.232-.202-.381-.497-.381-.828zm-2.207-.552c.228 0 .414.185.414.414s-.185.414-.414.414-.414-.185-.414-.414.185-.414.414-.414zm-3.31 1.103a.55.55 0 0 0 .552-.552V6.517a.83.83 0 0 1 .828-.828c.153 0 .276.124.276.276s-.123.276-.276.276-.276.124-.276.276V7.62a1.1 1.1 0 0 1-.381.828c.232.202.381.497.381.828v1.103c0 .152.124.276.276.276s.276.124.276.276-.123.276-.276.276a.83.83 0 0 1-.828-.828V9.276a.55.55 0 0 0-.552-.552c-.153 0-.276-.124-.276-.276s.123-.276.276-.276z"/><path d="M2.793 12.31v4.138c0 .278.337.552.679.552h11.055c.343 0 .679-.273.679-.552V12.31H2.793zm3.178 2.915c0 .131-.024.241-.072.33a.59.59 0 0 1-.192.215c-.081.054-.173.092-.277.113s-.212.032-.322.032c-.055 0-.12-.006-.194-.017a1.66 1.66 0 0 1-.23-.053l-.228-.081c-.073-.03-.134-.064-.185-.102l.192-.305a.56.56 0 0 0 .108.055 1.66 1.66 0 0 0 .153.053l.174.043c.06.013.117.019.17.019a.58.58 0 0 0 .319-.077c.079-.051.121-.139.126-.262V13.06h.46v2.165zm2.19.202a.76.76 0 0 1-.175.249.84.84 0 0 1-.279.172 1.04 1.04 0 0 1-.377.064c-.06 0-.122-.003-.187-.009s-.129-.017-.194-.032a1.01 1.01 0 0 1-.187-.062c-.059-.027-.11-.059-.153-.096l.079-.324a.81.81 0 0 0 .134.058l.168.053.174.04c.058.01.112.015.162.015.153 0 .271-.036.353-.108s.122-.178.122-.319c0-.086-.029-.158-.087-.219a.94.94 0 0 0-.217-.164l-.281-.147c-.101-.049-.195-.107-.283-.173s-.161-.145-.219-.236-.087-.204-.087-.339c0-.123.023-.232.068-.328s.106-.177.183-.243a.81.81 0 0 1 .268-.153c.102-.035.209-.053.322-.053s.233.011.351.032.214.056.287.104l-.053.108-.057.109-.045.085-.023.038c-.015-.008-.032-.017-.051-.03s-.046-.025-.081-.038a.58.58 0 0 0-.14-.027c-.058-.005-.132-.004-.223.004a.39.39 0 0 0-.143.043c-.046.024-.086.053-.121.089s-.063.075-.083.119-.03.086-.03.126c0 .1.029.181.087.243a.85.85 0 0 0 .215.162l.279.136a1.51 1.51 0 0 1 .281.16.81.81 0 0 1 .217.236c.058.094.087.216.087.364a.7.7 0 0 1-.061.292zm2.704-.315c-.059.178-.141.327-.245.445a1.03 1.03 0 0 1-.366.268 1.14 1.14 0 0 1-.458.091 1.14 1.14 0 0 1-.458-.091c-.14-.06-.262-.149-.366-.268s-.186-.267-.245-.445a1.97 1.97 0 0 1-.089-.619c0-.234.03-.439.089-.617s.141-.325.245-.443a1.05 1.05 0 0 1 .366-.27 1.12 1.12 0 0 1 .458-.092 1.12 1.12 0 0 1 .458.092c.14.062.262.151.366.27s.186.266.245.443.088.383.088.617-.03.44-.088.619zm2.736.784h-.46l-1.09-1.916v1.916h-.46v-2.78h.46l1.09 1.916v-1.916h.46v2.78z"/></g></g><defs><clipPath id="G"><path d="M0 0H18V18H0z" class="B"/></clipPath><clipPath id="H"><path d="M0 0H18V18H0z" class="B"/></clipPath></defs></g><g transform="translate(381 1)"><g clip-path="url(#I)" class="G C"><g class="E"><path d="M7.313 7.313v7.313M2.25 7.313h13.5"/></g><path d="M15.188 3.375H2.813c-.311 0-.562.252-.562.563v10.125c0 .311.252.563.563.563h12.375c.311 0 .563-.252.563-.562V3.938c0-.311-.252-.562-.562-.562z"/></g><defs><clipPath id="I"><path d="M0 0H18V18H0z" class="B"/></clipPath></defs></g><g transform="translate(401 1)"><g clip-path="url(#J)" class="C G"><path d="M9 11.25H6.75V9L13.5 2.25L15.75 4.5L9 11.25Z"/><g class="E"><path d="M11.813 3.938l2.25 2.25"/><path d="M15.188 8.438v6.188a.56.56 0 0 1-.562.563H3.375c-.149 0-.292-.059-.398-.165a.56.56 0 0 1-.165-.398V3.375c0-.149.059-.292.165-.398s.249-.165.398-.165h6.188"/></g></g><defs><clipPath id="J"><path d="M0 0H18V18H0z" class="B"/></clipPath></defs></g><g transform="translate(421 1)"><g clip-path="url(#K)" class="C E H"><path d="M12.375 10.688l3.375-3.375-3.375-3.375"/><path d="M2.25 14.063A6.75 6.75 0 0 1 9 7.313h6.75"/></g><defs><clipPath id="K"><path transform="matrix(-1 0 0 1 18 0)" d="M0 0H18V18H0z" class="B"/></clipPath></defs></g><g transform="translate(441 1)"><g clip-path="url(#L)" class="C E H"><path d="M5.625 11.25h9a.56.56 0 0 0 .563-.562V3.375c0-.149-.059-.292-.165-.398a.56.56 0 0 0-.398-.165H6.75c-.149 0-.292.059-.398.165s-.165.249-.165.398v.563"/><path d="M7.313 9.563L5.625 11.25l1.688 1.688"/><path d="M12.375 6.75h-9a.56.56 0 0 0-.563.563v7.313a.56.56 0 0 0 .165.398c.105.105.249.165.398.165h7.875a.56.56 0 0 0 .563-.562v-.562m-1.125-5.627l1.688-1.687-1.687-1.687"/></g><defs><clipPath id="L"><path d="M0 0H18V18H0z" class="B"/></clipPath></defs></g><g transform="translate(461 1)"><g clip-path="url(#M)" class="C G"><path d="M2.25 3.938h13.5V13.5a.56.56 0 0 1-.562.563H2.813c-.149 0-.292-.059-.398-.165a.56.56 0 0 1-.165-.398V3.938z"/><g class="E"><path d="M2.25 7.313h13.5m-13.5 3.375h13.5"/><path d="M11.969 7.313l-.023 6.75M6.188 3.938v10.125"/></g></g><defs><clipPath id="M"><path d="M0 0H18V18H0z" class="B"/></clipPath></defs></g><g transform="translate(481 1)"><g clip-path="url(#N)"><g clip-path="url(#O)"><path d="M10.293 1H5a2 2 0 0 0-2 2v12a2 2 0 0 0 2 2h8a2 2 0 0 0 2-2V5.707A1 1 0 0 0 14.707 5L11 1.293A1 1 0 0 0 10.293 1h0zm.207 3.5v-2l3 3h-2a1 1 0 0 1-1-1zm.5 10v-6a.5.5 0 0 1 .5-.5h1a.5.5 0 0 1 .5.5v6a.5.5 0 0 1-.5.5h-1a.5.5 0 0 1-.5-.5zm-2.5.5a.5.5 0 0 1-.5-.5v-4a.5.5 0 0 1 .5-.5h1a.5.5 0 0 1 .5.5v4a.5.5 0 0 1-.5.5h-1zm-3 0a.5.5 0 0 1-.5-.5v-2a.5.5 0 0 1 .5-.5h1a.5.5 0 0 1 .5.5v2a.5.5 0 0 1-.5.5h-1z" fill="#333"/></g></g><defs><clipPath id="N"><path d="M0 0H18V18H0z" class="B"/></clipPath><clipPath id="O"><path d="M0 0H18V18H0z" class="B"/></clipPath></defs></g><g transform="translate(501 1)"><g clip-path="url(#P)"><path d="M9 13.5c0-.448.178-.877.494-1.193s.746-.494 1.193-.494h3.249c.382 0 .753-.13 1.052-.368a1.69 1.69 0 0 0 .593-.943c.116-.512.172-1.035.168-1.56-.032-3.714-3.105-6.729-6.82-6.692A6.75 6.75 0 0 0 2.25 9c0 2.94 1.879 5.164 4.5 6.09a1.69 1.69 0 0 0 .794.08c.267-.037.522-.138.742-.293a1.69 1.69 0 0 0 .524-.602c.124-.24.189-.505.189-.775z" class="C H"/><g fill="#002050"><path d="M9 6.188c.466 0 .844-.378.844-.844S9.466 4.5 9 4.5s-.844.378-.844.844.378.844.844.844z"/><use xlink:href="#B"/><path d="M5.906 11.813c.466 0 .844-.378.844-.844s-.378-.844-.844-.844-.844.378-.844.844.378.844.844.844zm6.188-3.938c.466 0 .844-.378.844-.844s-.378-.844-.844-.844-.844.378-.844.844.378.844.844.844z"/></g></g><defs><clipPath id="P"><path d="M0 0H18V18H0z" class="B"/></clipPath></defs></g><g transform="translate(521 1)"><g clip-path="url(#Q)" class="J"><g clip-path="url(#R)"><path d="M9.843 1.538a7.36 7.36 0 0 0-1.218-.101H7.219c-.776 0-1.406.63-1.406 1.406v1.99l-.563-.021H3.844c-.776 0-1.406.63-1.406 1.406v9.563c0 .373.148.731.412.994s.621.412.994.412h7.312c.777 0 1.406-.63 1.406-1.406v-1.969h1.969c.777 0 1.406-.63 1.406-1.406V8.75c0-3.624-2.636-6.631-6.095-7.212zM7.219 2.563c-.155 0-.281.126-.281.281v9.563a.28.28 0 0 0 .281.281h7.312c.155 0 .281-.126.281-.281V9.031a1.97 1.97 0 0 0-1.969-1.969h-1.125c-.373 0-.731-.148-.994-.412s-.412-.621-.412-.994V4.531a1.97 1.97 0 0 0-.577-1.392 1.97 1.97 0 0 0-1.392-.577H7.219zm5.625 3.375c.517 0 1.021.13 1.468.371a6.21 6.21 0 0 0-3.245-3.246 3.1 3.1 0 0 1 .135.285c.155.375.236.778.236 1.184v1.125a.28.28 0 0 0 .281.281h1.125zm-7.031.025l-.562-.025H3.844c-.155 0-.281.126-.281.281v9.563a.28.28 0 0 0 .281.281h7.312c.155 0 .281-.126.281-.281v-1.969H7.219c-.373 0-.731-.148-.994-.412s-.412-.621-.412-.994V5.963z" fill="#002050"/></g></g><defs><clipPath id="Q"><path d="M0 0H18V18H0z" class="B"/></clipPath><clipPath id="R"><path d="M0 0H18V18H0z" class="B"/></clipPath></defs></g></g></svg>