<svg xmlns="http://www.w3.org/2000/svg" xmlns:xlink="http://www.w3.org/1999/xlink" width="320" height="20" xmlns:v="https://vecta.io/nano"><style><![CDATA[.B{fill:#fff}.C{stroke-linejoin:round}.D{stroke-linecap:round}.E{stroke:#596e8d}.F{stroke:#002050}]]></style><g fill="none"><g class="E"><path d="M11.688 8.875H14.5m-2.812 2.25H14.5" class="C D"/><path d="M16.188 4.375H3.813c-.311 0-.562.252-.562.563v10.125c0 .311.252.563.563.563h12.375c.311 0 .563-.252.563-.562V4.938c0-.311-.252-.562-.562-.562z" class="C"/><path d="M6.823 8.581a.3.3 0 0 1 .514 0l1.544 2.564a.3.3 0 0 1-.257.455H5.536a.3.3 0 0 1-.257-.455l1.544-2.564z"/></g><g transform="translate(21 1)"><g clip-path="url(#A)" class="C D F"><path d="M5.625 10.688L2.25 7.313l3.375-3.375"/><path d="M15.75 14.063A6.75 6.75 0 0 0 9 7.313H2.25"/></g><defs><clipPath id="A"><path d="M0 0H18V18H0z" class="B"/></clipPath><path id="B" d="M5.906 7.875c.466 0 .844-.378.844-.844s-.378-.844-.844-.844-.844.378-.844.844.378.844.844.844z"/></defs></g><path d="M45.5 7.75l4.5 4.5 4.5-4.5" stroke-width="1.5" class="E"/><g transform="translate(61 1)"><g clip-path="url(#C)" stroke-width="1.5"><path d="M4 14L14 4" stroke="#637794"/><path d="M14 14L4 4" class="E"/></g><defs><clipPath id="C"><path d="M0 0H18V18H0z" class="B"/></clipPath></defs></g><g transform="translate(81 1)"><g clip-path="url(#D)" class="C D F"><path d="M15.638 3.938H3.263"/><g stroke-width="1.25"><path d="M7.763 7.313v4.5m3.375-4.5v4.5"/></g><path d="M14.513 3.938v10.688a.56.56 0 0 1-.562.563h-9a.56.56 0 0 1-.563-.563V3.938m7.875 0V2.813c0-.298-.119-.585-.33-.796s-.497-.329-.795-.329H7.763c-.298 0-.585.119-.795.329a1.13 1.13 0 0 0-.33.796v1.125"/></g><defs><clipPath id="D"><path d="M0 0H18V18H0z" class="B"/></clipPath></defs></g><g transform="translate(101 1)"><g clip-path="url(#E)" class="C D E"><path d="M3.375 14.625V9.563H6.75m9 5.062H2.25"/><path d="M6.75 14.625V6.188h3.938m0 8.437V2.813h3.938v11.813"/></g><defs><clipPath id="E"><path d="M0 0H18V18H0z" class="B"/></clipPath></defs></g><path d="M127.75 14.5l4.5-4.5-4.5-4.5" class="F"/><g transform="translate(141 1)"><g clip-path="url(#F)"><g clip-path="url(#G)" fill="#333"><path d="M10.284 13.686a.58.58 0 0 0-.219-.185.61.61 0 0 0-.258-.057.68.68 0 0 0-.266.053.57.57 0 0 0-.226.179c-.066.084-.119.193-.156.326a1.91 1.91 0 0 0-.06.49 1.95 1.95 0 0 0 .058.483.94.94 0 0 0 .151.326c.064.084.137.146.219.185a.59.59 0 0 0 .258.058c.093 0 .182-.018.266-.055s.16-.096.226-.179a.91.91 0 0 0 .156-.326c.037-.134.058-.298.06-.492a1.92 1.92 0 0 0-.058-.481.97.97 0 0 0-.151-.326zm4.923-1.927V4.856c0-.211-.025-.368-.152-.494l-3.21-3.21A.52.52 0 0 0 11.479 1H3.472c-.327 0-.679.253-.679.807v9.951h12.414zm-6.069-1.655c0 .152-.123.276-.276.276s-.276-.124-.276-.276v-.828c0-.152.123-.276.276-.276s.276.124.276.276v.828zm2.207-8.168c0-.126.152-.19.242-.1l2.785 2.785c.089.089.026.242-.1.242h-2.927V1.935zm-.276 5.685V6.517c0-.152-.124-.276-.276-.276s-.276-.124-.276-.276.123-.276.276-.276a.83.83 0 0 1 .828.828V7.62a.55.55 0 0 0 .552.552c.152 0 .276.124.276.276s-.123.276-.276.276a.55.55 0 0 0-.552.552v1.103a.83.83 0 0 1-.828.828c-.153 0-.276-.124-.276-.276s.123-.276.276-.276.276-.124.276-.276V9.276c0-.331.149-.625.381-.828-.232-.202-.381-.497-.381-.828zm-2.207-.552c.228 0 .414.185.414.414s-.185.414-.414.414-.414-.185-.414-.414.185-.414.414-.414zm-3.31 1.103a.55.55 0 0 0 .552-.552V6.517a.83.83 0 0 1 .828-.828c.153 0 .276.124.276.276s-.123.276-.276.276-.276.124-.276.276V7.62a1.1 1.1 0 0 1-.381.828c.232.202.381.497.381.828v1.103c0 .152.124.276.276.276s.276.124.276.276-.123.276-.276.276a.83.83 0 0 1-.828-.828V9.276a.55.55 0 0 0-.552-.552c-.153 0-.276-.124-.276-.276s.123-.276.276-.276z"/><path d="M2.793 12.31v4.138c0 .278.337.552.679.552h11.055c.343 0 .679-.273.679-.552V12.31H2.793zm3.178 2.915c0 .131-.024.241-.072.33a.59.59 0 0 1-.192.215c-.081.054-.173.092-.277.113s-.212.032-.322.032c-.055 0-.12-.006-.194-.017a1.66 1.66 0 0 1-.23-.053l-.228-.081c-.073-.03-.134-.064-.185-.102l.192-.305a.56.56 0 0 0 .108.055 1.66 1.66 0 0 0 .153.053l.174.043c.06.013.117.019.17.019a.58.58 0 0 0 .319-.077c.079-.051.121-.139.126-.262V13.06h.46v2.165zm2.19.202a.76.76 0 0 1-.175.249.84.84 0 0 1-.279.172 1.04 1.04 0 0 1-.377.064c-.06 0-.122-.003-.187-.009s-.129-.017-.194-.032a1.01 1.01 0 0 1-.187-.062c-.059-.027-.11-.059-.153-.096l.079-.324a.81.81 0 0 0 .134.058l.168.053.174.04c.058.01.112.015.162.015.153 0 .271-.036.353-.108s.122-.178.122-.319c0-.086-.029-.158-.087-.219a.94.94 0 0 0-.217-.164l-.281-.147c-.101-.049-.195-.107-.283-.173s-.161-.145-.219-.236-.087-.204-.087-.339c0-.123.023-.232.068-.328s.106-.177.183-.243a.81.81 0 0 1 .268-.153c.102-.035.209-.053.322-.053s.233.011.351.032.214.056.287.104l-.053.108-.057.109-.045.085-.023.038c-.015-.008-.032-.017-.051-.03s-.046-.025-.081-.038a.58.58 0 0 0-.14-.027c-.058-.005-.132-.004-.223.004a.39.39 0 0 0-.143.043c-.046.024-.086.053-.121.089s-.063.075-.083.119-.03.086-.03.126c0 .1.029.181.087.243a.85.85 0 0 0 .215.162l.279.136a1.51 1.51 0 0 1 .281.16.81.81 0 0 1 .217.236c.058.094.087.216.087.364a.7.7 0 0 1-.061.292zm2.704-.315c-.059.178-.141.327-.245.445a1.03 1.03 0 0 1-.366.268 1.14 1.14 0 0 1-.458.091 1.14 1.14 0 0 1-.458-.091c-.14-.06-.262-.149-.366-.268s-.186-.267-.245-.445a1.97 1.97 0 0 1-.089-.619c0-.234.03-.439.089-.617s.141-.325.245-.443a1.05 1.05 0 0 1 .366-.27 1.12 1.12 0 0 1 .458-.092 1.12 1.12 0 0 1 .458.092c.14.062.262.151.366.27s.186.266.245.443.088.383.088.617-.03.44-.088.619zm2.736.784h-.46l-1.09-1.916v1.916h-.46v-2.78h.46l1.09 1.916v-1.916h.46v2.78z"/></g></g><defs><clipPath id="F"><path d="M0 0H18V18H0z" class="B"/></clipPath><clipPath id="G"><path d="M0 0H18V18H0z" class="B"/></clipPath></defs></g><g transform="translate(161 1)"><g clip-path="url(#H)" class="E C"><g class="D"><path d="M7.313 7.313v7.313M2.25 7.313h13.5"/></g><path d="M15.188 3.375H2.813c-.311 0-.562.252-.562.563v10.125c0 .311.252.563.563.563h12.375c.311 0 .563-.252.563-.562V3.938c0-.311-.252-.562-.562-.562z"/></g><defs><clipPath id="H"><path d="M0 0H18V18H0z" class="B"/></clipPath></defs></g><g transform="translate(181 1)"><g clip-path="url(#I)" class="C E"><path d="M9 11.25H6.75V9L13.5 2.25L15.75 4.5L9 11.25Z"/><g class="D"><path d="M11.813 3.938l2.25 2.25"/><path d="M15.188 8.438v6.188a.56.56 0 0 1-.562.563H3.375c-.149 0-.292-.059-.398-.165a.56.56 0 0 1-.165-.398V3.375c0-.149.059-.292.165-.398s.249-.165.398-.165h6.188"/></g></g><defs><clipPath id="I"><path d="M0 0H18V18H0z" class="B"/></clipPath></defs></g><g transform="translate(201 1)"><g clip-path="url(#J)" class="C D F"><path d="M12.375 10.688l3.375-3.375-3.375-3.375"/><path d="M2.25 14.063A6.75 6.75 0 0 1 9 7.313h6.75"/></g><defs><clipPath id="J"><path transform="matrix(-1 0 0 1 18 0)" d="M0 0H18V18H0z" class="B"/></clipPath></defs></g><g transform="translate(221 1)"><g clip-path="url(#K)" class="C D F"><path d="M5.625 11.25h9a.56.56 0 0 0 .563-.562V3.375c0-.149-.059-.292-.165-.398a.56.56 0 0 0-.398-.165H6.75c-.149 0-.292.059-.398.165s-.165.249-.165.398v.563"/><path d="M7.313 9.563L5.625 11.25l1.688 1.688"/><path d="M12.375 6.75h-9a.56.56 0 0 0-.563.563v7.313a.56.56 0 0 0 .165.398c.105.105.249.165.398.165h7.875a.56.56 0 0 0 .563-.562v-.562m-1.125-5.627l1.688-1.687-1.687-1.687"/></g><defs><clipPath id="K"><path d="M0 0H18V18H0z" class="B"/></clipPath></defs></g><g transform="translate(241 1)"><g clip-path="url(#L)" class="C E"><path d="M2.25 3.938h13.5V13.5a.56.56 0 0 1-.562.563H2.813c-.149 0-.292-.059-.398-.165a.56.56 0 0 1-.165-.398V3.938z"/><g class="D"><path d="M2.25 7.313h13.5m-13.5 3.375h13.5"/><path d="M11.969 7.313l-.023 6.75M6.188 3.938v10.125"/></g></g><defs><clipPath id="L"><path d="M0 0H18V18H0z" class="B"/></clipPath></defs></g><g transform="translate(261 1)"><g clip-path="url(#M)"><g clip-path="url(#N)"><path d="M10.293 1H5a2 2 0 0 0-2 2v12a2 2 0 0 0 2 2h8a2 2 0 0 0 2-2V5.707A1 1 0 0 0 14.707 5L11 1.293A1 1 0 0 0 10.293 1h0zm.207 3.5v-2l3 3h-2a1 1 0 0 1-1-1zm.5 10v-6a.5.5 0 0 1 .5-.5h1a.5.5 0 0 1 .5.5v6a.5.5 0 0 1-.5.5h-1a.5.5 0 0 1-.5-.5zm-2.5.5a.5.5 0 0 1-.5-.5v-4a.5.5 0 0 1 .5-.5h1a.5.5 0 0 1 .5.5v4a.5.5 0 0 1-.5.5h-1zm-3 0a.5.5 0 0 1-.5-.5v-2a.5.5 0 0 1 .5-.5h1a.5.5 0 0 1 .5.5v2a.5.5 0 0 1-.5.5h-1z" fill="#333"/></g></g><defs><clipPath id="M"><path d="M0 0H18V18H0z" class="B"/></clipPath><clipPath id="N"><path d="M0 0H18V18H0z" class="B"/></clipPath></defs></g><g transform="translate(281 1)"><g clip-path="url(#O)"><path d="M9 13.5c0-.448.178-.877.494-1.193s.746-.494 1.193-.494h3.249c.382 0 .753-.13 1.052-.368a1.69 1.69 0 0 0 .593-.943c.116-.512.172-1.035.168-1.56-.032-3.714-3.105-6.729-6.82-6.692A6.75 6.75 0 0 0 2.25 9c0 2.94 1.879 5.164 4.5 6.09a1.69 1.69 0 0 0 .794.08c.267-.037.522-.138.742-.293a1.69 1.69 0 0 0 .524-.602c.124-.24.189-.505.189-.775z" class="C F"/><g fill="#002050"><path d="M9 6.188c.466 0 .844-.378.844-.844S9.466 4.5 9 4.5s-.844.378-.844.844.378.844.844.844z"/><use xlink:href="#B"/><path d="M5.906 11.813c.466 0 .844-.378.844-.844s-.378-.844-.844-.844-.844.378-.844.844.378.844.844.844zm6.188-3.938c.466 0 .844-.378.844-.844s-.378-.844-.844-.844-.844.378-.844.844.378.844.844.844z"/></g></g><defs><clipPath id="O"><path d="M0 0H18V18H0z" class="B"/></clipPath></defs></g><g transform="translate(301 1)"><g clip-path="url(#P)"><g clip-path="url(#Q)"><path fill-rule="evenodd" d="M9.843 1.538a7.36 7.36 0 0 0-1.218-.101H7.219c-.776 0-1.406.63-1.406 1.406v1.99l-.563-.021H3.844c-.776 0-1.406.63-1.406 1.406v9.563c0 .373.148.731.412.994s.621.412.994.412h7.312c.777 0 1.406-.63 1.406-1.406v-1.969h1.969c.777 0 1.406-.63 1.406-1.406V8.75c0-3.624-2.636-6.631-6.095-7.212zM7.219 2.563c-.155 0-.281.126-.281.281v9.563a.28.28 0 0 0 .281.281h7.312c.155 0 .281-.126.281-.281V9.031a1.97 1.97 0 0 0-1.969-1.969h-1.125c-.373 0-.731-.148-.994-.412s-.412-.621-.412-.994V4.531a1.97 1.97 0 0 0-.577-1.392 1.97 1.97 0 0 0-1.392-.577H7.219zm5.625 3.375c.517 0 1.021.13 1.468.371a6.21 6.21 0 0 0-3.245-3.246 3.1 3.1 0 0 1 .135.285c.155.375.236.778.236 1.184v1.125a.28.28 0 0 0 .281.281h1.125zm-7.031.025l-.562-.025H3.844c-.155 0-.281.126-.281.281v9.563a.28.28 0 0 0 .281.281h7.312c.155 0 .281-.126.281-.281v-1.969H7.219c-.373 0-.731-.148-.994-.412s-.412-.621-.412-.994V5.963z" fill="#002050"/></g></g><defs><clipPath id="P"><path d="M0 0H18V18H0z" class="B"/></clipPath><clipPath id="Q"><path d="M0 0H18V18H0z" class="B"/></clipPath></defs></g></g></svg>